<svg width="82" height="84" viewBox="0 0 82 84" fill="none" xmlns="http://www.w3.org/2000/svg">
<ellipse cx="18.2175" cy="18.2175" rx="18.2175" ry="18.2175" transform="matrix(-0.819075 0.573686 0.573686 0.819075 33.0952 15.3612)" fill="#754B92"/>
<ellipse cx="2.09054" cy="2.09053" rx="2.09054" ry="2.09053" transform="matrix(-0.819075 0.573686 0.573686 0.819075 36.9688 60.1656)" fill="#446B9C"/>
<ellipse cx="2.09054" cy="2.09053" rx="2.09054" ry="2.09053" transform="matrix(-0.819075 0.573686 0.573686 0.819075 68.7686 37.8926)" fill="#754B92"/>
<ellipse cx="0.927392" cy="0.927391" rx="0.927392" ry="0.927391" transform="matrix(-0.819075 0.573686 0.573686 0.819075 43.5413 25.3624)" fill="#754B92"/>
<ellipse cx="3.28513" cy="3.28512" rx="3.28513" ry="3.28512" transform="matrix(-0.865958 0.500116 0.500116 0.865959 27.9221 12.7623)" fill="#446B9C"/>
<ellipse cx="5.75328" cy="5.75327" rx="5.75328" ry="5.75327" transform="matrix(-0.865958 0.500116 0.500116 0.865959 47.1628 10.1312)" fill="#754B92"/>
<ellipse cx="8.0635" cy="8.06349" rx="8.0635" ry="8.06349" transform="matrix(-0.819075 0.573686 0.573686 0.819075 55.6565 44.1595)" fill="#754B92"/>
<ellipse cx="4.77837" cy="4.77836" rx="4.77837" ry="4.77836" transform="matrix(-0.819075 0.573686 0.573686 0.819075 73.4192 45.5737)" fill="#446B9C"/>
<ellipse cx="1.19459" cy="1.19459" rx="1.19459" ry="1.19459" transform="matrix(-0.819075 0.573686 0.573686 0.819075 74.4949 41.9037)" fill="#754B92"/>
<ellipse cx="9.22304" cy="9.22302" rx="9.22304" ry="9.22302" transform="matrix(-0.819075 0.573686 0.573686 0.819075 58.2837 19.6036)" fill="#446B9C"/>
</svg>
