<svg width="87" height="87" viewBox="0 0 87 87" fill="none" xmlns="http://www.w3.org/2000/svg">
<g clip-path="url(#clip0_1054_5)">
<path d="M63.9167 33.2918H49.625V29.2085H63.9167V33.2918ZM67.4406 53.7085C66.5382 56.3565 63.298 59.8335 57.026 59.8335C50.75 59.8335 45.6662 56.3035 45.6662 48.247C45.6662 40.2641 50.4131 36.1604 56.826 36.1604C63.1184 36.1604 66.9608 39.7986 67.7999 45.1968C67.9592 46.2299 68.0225 47.6223 67.9939 49.566H51.6054C51.8708 56.1217 58.7165 56.328 60.9726 53.7085H67.4406ZM51.7483 45.5418H61.8852C61.6708 42.3834 59.5659 41.0114 56.828 41.0114C53.8349 41.0114 52.1791 42.5794 51.7483 45.5418ZM32.2014 59.809H19V29.2514H33.1957C44.3759 29.4167 44.5882 40.3662 38.749 43.3511C45.8153 45.9236 46.0521 59.809 32.2014 59.809ZM25.125 41.4585H32.4423C37.5628 41.4585 38.3754 35.3335 31.8053 35.3335H25.125V41.4585ZM32.0483 47.5835H25.125V53.7412H31.9462C38.1835 53.7412 37.8017 47.5835 32.0483 47.5835Z" fill="#0A111A"/>
</g>
<rect x="3" y="3" width="81" height="81" rx="14" stroke="#0A111A" stroke-width="6"/>
<defs>
<clipPath id="clip0_1054_5">
<rect width="49" height="49" fill="white" transform="translate(19 19)"/>
</clipPath>
</defs>
</svg>
