<svg width="496" height="668" viewBox="0 0 496 668" fill="none" xmlns="http://www.w3.org/2000/svg">
<rect x="182" y="209" width="314" height="437" rx="15" fill="#2F80E4"/>
<rect width="409" height="617" rx="15" fill="#772CA9"/>
<rect width="41.5238" height="41.5238" rx="2" transform="matrix(0 1 1 0 424.95 29.6667)" fill="#772CA9"/>
<rect width="19.8095" height="19.8095" rx="2" transform="matrix(0 1 1 0 456.57 74.6189)" fill="#772CA9"/>
<rect width="11.8095" height="11.8095" rx="2" transform="matrix(0 1 1 0 443.998 86.8092)" fill="#2F80E4"/>
<rect width="4.95238" height="4.95238" rx="1" transform="matrix(0 1 1 0 467.617 62.4286)" fill="#772CA9"/>
<rect width="3.42857" height="3.42857" rx="1" transform="matrix(0 1 1 0 419.998 26.9998)" fill="#772CA9"/>
<rect width="1.52381" height="1.52381" transform="matrix(0 1 1 0 421.903 46.4282)" fill="#2F80E4"/>
<rect width="1.52381" height="1.52381" transform="matrix(0 1 1 0 431.046 71.952)" fill="#2F80E4"/>
<rect width="1.52381" height="1.52381" transform="matrix(0 1 1 0 470.284 28.1424)" fill="#2F80E4"/>
<rect width="4.95238" height="4.95238" rx="1" transform="matrix(0 1 1 0 435.998 73.0952)" fill="#2F80E4"/>
<rect width="2.28571" height="2.28571" rx="1" transform="matrix(0 1 1 0 439.808 78.8096)" fill="#772CA9"/>
<rect width="3.80952" height="3.80952" rx="1" transform="matrix(0 1 1 0 459.998 101.285)" fill="#2F80E4"/>
<rect width="1.90476" height="1.90476" transform="matrix(0 1 1 0 451.998 105.095)" fill="#772CA9"/>
<rect width="4.95238" height="4.95238" rx="1" transform="matrix(0 1 1 0 456.57 95.571)" fill="#772CA9"/>
<rect x="25.0458" y="627.8" width="31.8591" height="31.8591" rx="2" fill="#772CA9"/>
<rect x="59.5355" y="652.059" width="15.1989" height="15.1989" rx="2" fill="#772CA9"/>
<rect x="68.8886" y="642.414" width="9.06086" height="9.06086" rx="1" fill="#2F80E4"/>
<rect x="50.1823" y="660.536" width="3.79971" height="3.79971" fill="#772CA9"/>
<rect x="22.9998" y="624" width="2.63057" height="2.63057" fill="#772CA9"/>
<rect x="37.9063" y="625.461" width="1.16914" height="1.16914" fill="#2F80E4"/>
<rect x="57.4895" y="632.476" width="1.16914" height="1.16914" fill="#2F80E4"/>
<rect x="23.8766" y="662.582" width="1.16914" height="1.16914" fill="#2F80E4"/>
<rect x="58.3663" y="636.276" width="3.79971" height="3.79971" fill="#2F80E4"/>
<rect x="62.7506" y="639.199" width="1.75371" height="1.75371" rx="0.876857" fill="#772CA9"/>
<rect x="79.9955" y="654.69" width="2.92286" height="2.92286" fill="#2F80E4"/>
<rect x="82.9183" y="648.552" width="1.46143" height="1.46143" fill="#772CA9"/>
<rect x="75.6112" y="652.059" width="3.79971" height="3.79971" rx="1" fill="#772CA9"/>
</svg>
