<svg width="139" height="98" viewBox="0 0 139 98" fill="none" xmlns="http://www.w3.org/2000/svg">
<rect width="72.1476" height="72.1476" rx="8" transform="matrix(-1 0 0 1 134.367 8.60472)" fill="#754B92"/>
<rect width="34.419" height="34.419" rx="5" transform="matrix(-1 0 0 1 56.2617 63.5428)" fill="#754B92"/>
<rect width="20.519" height="20.519" rx="3" transform="matrix(-1 0 0 1 35.0811 41.7)" fill="#446B9C"/>
<rect width="8.60476" height="8.60476" rx="1" transform="matrix(-1 0 0 1 77.4429 82.738)" fill="#754B92"/>
<rect width="5.95714" height="5.95714" rx="1" transform="matrix(-1 0 0 1 139 -4.57764e-05)" fill="#754B92"/>
<rect width="2.64762" height="2.64762" transform="matrix(-1 0 0 1 105.243 3.30948)" fill="#446B9C"/>
<rect width="2.64762" height="2.64762" transform="matrix(-1 0 0 1 60.895 19.1952)" fill="#446B9C"/>
<rect width="2.64762" height="2.64762" transform="matrix(-1 0 0 1 137.014 87.3714)" fill="#446B9C"/>
<rect width="8.60476" height="8.60476" rx="1" transform="matrix(-1 0 0 1 58.9097 27.8)" fill="#446B9C"/>
<rect width="3.97143" height="3.97143" rx="1" transform="matrix(-1 0 0 1 48.981 34.419)" fill="#754B92"/>
<rect width="6.61905" height="6.61905" rx="1" transform="matrix(-1 0 0 1 9.92871 69.4999)" fill="#446B9C"/>
<rect width="3.30952" height="3.30952" transform="matrix(-1 0 0 1 3.30957 55.5999)" fill="#754B92"/>
<rect width="8.60476" height="8.60476" rx="1" transform="matrix(-1 0 0 1 19.8569 63.5428)" fill="#754B92"/>
</svg>
