<svg width="100" height="100" viewBox="0 0 100 100" fill="none" xmlns="http://www.w3.org/2000/svg">
<path opacity="0.2" d="M38.0114 99.5731C36.3348 99.179 34.9316 98.2572 32.9678 96.2597C29.6877 92.9227 27.0257 91.5336 22.399 90.7437C17.5994 89.9244 15.4666 88.1555 14.1843 83.9303C12.6015 78.715 10.9472 76.2172 7.31224 73.5551C3.18885 70.535 2.13091 67.8718 3.13734 63.0456C4.06952 58.5755 3.71256 55.3974 1.81935 51.3113C-0.439493 46.4359 -0.160645 43.8308 3.04758 39.8364C5.98877 36.1746 6.91191 33.7541 7.35241 28.5493C7.79691 23.2969 9.27063 21.142 13.6108 19.3981C17.2331 17.9427 20.3319 15.4162 22.0499 12.5174C24.0366 9.16539 24.3266 8.78111 25.5575 7.87043C27.5439 6.40094 29.1499 5.99371 32.2085 6.18388C37.5216 6.51422 40.3693 5.88161 43.9372 3.57843C48.5893 0.575418 51.41 0.575418 56.0622 3.57843C59.6301 5.88161 62.4778 6.51422 67.7909 6.18388C72.8152 5.87144 74.9059 7.17934 77.9684 12.5509C79.4861 15.2128 82.5881 17.8035 85.9838 19.2443C90.8194 21.2965 92.2245 23.1695 92.5813 28.0368C92.9678 33.3082 94.0576 36.2555 96.9449 39.8364C100.16 43.8236 100.441 46.4312 98.1796 51.3113C96.2872 55.3974 95.9296 58.5755 96.8618 63.0456C97.8686 67.8718 96.8101 70.535 92.6872 73.5551C89.0525 76.2172 87.3983 78.715 85.8152 83.9303C84.533 88.1555 82.3999 89.9244 77.6004 90.7437C72.9639 91.5353 70.2989 92.9286 67.0316 96.2706C63.4095 99.974 60.813 100.586 55.7493 98.9252C51.6077 97.5681 48.4189 97.5622 44.2938 98.9051C41.4043 99.8454 39.864 100.009 38.0114 99.5731Z" fill="black"/>
<path d="M38.0114 98.589C36.3348 98.194 34.9316 97.2722 32.9678 95.2747C29.6877 91.9386 27.0257 90.5487 22.399 89.7596C17.5994 88.9403 15.4666 87.1705 14.1843 82.9461C12.6015 77.7302 10.9472 75.2324 7.31224 72.5702C3.18885 69.5501 2.13091 66.8869 3.13734 62.0608C4.06952 57.5906 3.71256 54.4125 1.81935 50.3264C-0.439493 45.451 -0.160645 42.8459 3.04758 38.8516C5.98877 35.1898 6.91191 32.7692 7.35241 27.5645C7.79691 22.312 9.27063 20.1571 13.6108 18.4133C17.2331 16.9578 20.3319 14.4313 22.0499 11.5325C24.0366 8.18051 24.3266 7.79622 25.5575 6.88564C27.5439 5.41606 29.1499 5.00883 32.2085 5.199C37.5216 5.52933 40.3693 4.89681 43.9372 2.59358C48.5893 -0.409448 51.41 -0.409448 56.0622 2.59358C59.6301 4.89681 62.4778 5.52933 67.7909 5.199C72.8152 4.88656 74.9059 6.19446 77.9684 11.566C79.4861 14.228 82.5881 16.8187 85.9838 18.2595C90.8194 20.3116 92.2245 22.1846 92.5813 27.052C92.9678 32.3233 94.0576 35.2706 96.9449 38.8516C100.16 42.8387 100.441 45.4463 98.1796 50.3264C96.2872 54.4125 95.9296 57.5906 96.8618 62.0608C97.8686 66.8869 96.8101 69.5501 92.6872 72.5702C89.0525 75.2324 87.3983 77.7302 85.8152 82.9461C84.533 87.1705 82.3999 88.9403 77.6004 89.7596C72.9639 90.5503 70.2989 91.9445 67.0316 95.2856C63.4095 98.9898 60.813 99.6008 55.7493 97.9411C51.6077 96.5831 48.4189 96.5772 44.2938 97.9201C41.4043 98.8604 39.864 99.0243 38.0114 98.589Z" fill="white"/>
<path d="M67.8009 45.403C67.4882 44.7701 67.7562 44.0108 68.3944 43.7007C69.0325 43.3907 69.7983 43.6564 70.111 44.2892C70.4237 44.9221 70.1556 45.6814 69.5175 45.9915C68.8794 46.3015 68.1136 46.0358 67.8009 45.403ZM74.0101 58.0587C73.6974 57.4259 73.9654 56.6666 74.6036 56.3565C75.2417 56.0464 76.0075 56.3122 76.3202 56.945C76.6329 57.5778 76.3649 58.3371 75.7267 58.6472C75.0886 58.9573 74.3228 58.6915 74.0101 58.0587ZM74.5525 41.6379C70.4684 38.746 65.1398 37.9994 60.2069 39.8914L73.691 67.386C78.2346 64.7093 80.9279 60.0837 81.1576 55.1163L86.2754 55.4769C86.5686 55.4959 86.8245 55.2808 86.8432 54.9833C86.8627 54.6922 86.6457 54.4391 86.3457 54.4202L81.1635 54.0532C81.1127 51.889 80.5898 49.6806 79.5492 47.5544C78.509 45.4346 77.0796 43.6628 75.3949 42.2833L78.3049 38.012C78.4707 37.7716 78.4069 37.4425 78.1645 37.2779C77.922 37.1134 77.5901 37.1767 77.4242 37.4172L74.5525 41.6316" fill="#3DDC84"/>
<path d="M62.1214 51.9903C58.318 53.8127 54.2274 54.7366 49.9646 54.7366C40.3605 54.7366 31.6369 49.9021 26.5509 42.2074C26.1489 41.5999 25.3193 41.4544 24.7258 41.8846L19.8312 45.4599C19.276 45.8649 19.1484 46.6369 19.5376 47.2064C26.219 57.0969 37.5335 63.2918 49.9646 63.2918C55.5357 63.2918 60.8897 62.0832 65.8737 59.6976L62.1214 51.9903Z" fill="#4285F4"/>
<path d="M49.9201 21.572H52.5684V15.7694C52.5684 14.3203 51.3815 13.1433 49.9201 13.1433C48.4588 13.1433 47.2717 14.3203 47.2717 15.7694V21.572H49.9201Z" fill="#4285F4"/>
<path d="M43.0279 32.8992L24.8214 70.0564C24.4258 70.8601 24.2152 71.7333 24.1961 72.6256L24.0876 77.4917C24.062 78.7509 25.5298 79.4597 26.5125 78.6624L30.3031 75.5744C30.9987 75.0112 31.5603 74.3024 31.956 73.4988L49.9007 36.8667L43.0342 32.9055L43.0279 32.8992Z" fill="#4285F4"/>
<path d="M75.6501 72.619C75.6309 71.7268 75.414 70.8535 75.0247 70.0499L56.8183 32.8926L49.9518 36.8665L67.8966 73.4859C68.2922 74.2896 68.8538 74.992 69.5494 75.5615L73.34 78.6495C74.3227 79.4468 75.7969 78.738 75.765 77.4788L75.6565 72.6127L75.6501 72.619Z" fill="#4285F4"/>
<path d="M49.9198 21.1101C45.5357 21.1101 41.9749 24.6474 41.9749 28.9883C41.9749 33.3293 45.5421 36.8666 49.9198 36.8666C54.2975 36.8666 57.8648 33.3293 57.8648 28.9883C57.8648 24.6474 54.2975 21.1101 49.9198 21.1101ZM49.9198 33.323C47.514 33.323 45.5485 31.3803 45.5485 28.9883C45.5485 26.5964 47.5076 24.6537 49.9198 24.6537C52.332 24.6537 54.2911 26.5964 54.2911 28.9883C54.2911 31.3803 52.332 33.323 49.9198 33.323Z" fill="#073042"/>
</svg>
