<svg width="85" height="86" viewBox="0 0 85 86" fill="none" xmlns="http://www.w3.org/2000/svg">
<path d="M26.4979 39.697C26.118 39.2036 25.557 38.8799 24.9377 38.7969C24.3185 38.7139 23.6914 38.8784 23.1937 39.2542C22.9009 39.4839 22.6647 39.7771 22.5032 40.1114L2.21552 80.4859C1.92818 81.0581 1.88098 81.7203 2.0843 82.3271C2.28763 82.9339 2.72483 83.4355 3.29981 83.7218C3.6359 83.8909 4.00747 83.9784 4.3841 83.9772H32.6499C33.1026 83.9888 33.5489 83.8687 33.9341 83.6317C34.3192 83.3948 34.6266 83.0512 34.8185 82.6432C40.919 70.1084 37.221 51.0509 26.4979 39.697Z" fill="url(#paint0_linear_874_2456)"/>
<path d="M41.4098 2.95561C36.3523 10.6975 33.4048 19.6144 32.8566 28.8313C32.3083 38.0482 34.1781 47.2486 38.2825 55.5298L51.9103 82.6429C52.1116 83.0437 52.4211 83.3807 52.8042 83.6163C53.1872 83.852 53.6286 83.9769 54.0789 83.977H82.339C82.6577 83.9778 82.9734 83.9159 83.268 83.7949C83.5626 83.6739 83.8303 83.4962 84.0557 83.272C84.281 83.0479 84.4597 82.7816 84.5813 82.4885C84.7029 82.1955 84.7651 81.8814 84.7644 81.5643C84.7646 81.1904 84.6787 80.8214 84.5133 80.4857L45.5358 2.94426C45.3508 2.5557 45.0587 2.22738 44.6935 1.99747C44.3283 1.76756 43.905 1.64551 43.4728 1.64551C43.0406 1.64551 42.6173 1.76756 42.2521 1.99747C41.8869 2.22738 41.5948 2.5557 41.4098 2.94426V2.95561Z" fill="#2684FF"/>
<defs>
<linearGradient id="paint0_linear_874_2456" x1="37.6661" y1="45.8679" x2="16.4109" y2="82.8759" gradientUnits="userSpaceOnUse">
<stop stop-color="#0052CC"/>
<stop offset="0.92" stop-color="#2684FF"/>
</linearGradient>
</defs>
</svg>
