<svg width="100" height="100" viewBox="0 0 100 100" fill="none" xmlns="http://www.w3.org/2000/svg">
<path d="M97.1223 45.6384L54.3605 2.87868C51.8983 0.415441 47.9045 0.415441 45.4402 2.87868L36.5615 11.7595L47.8246 23.0226C50.4423 22.138 53.4438 22.7317 55.5298 24.8186C57.6285 26.9184 58.2168 29.9455 57.3098 32.5729L68.1668 43.4288C70.7942 42.5228 73.8234 43.109 75.921 45.2099C78.8522 48.141 78.8522 52.8906 75.921 55.8239C72.9877 58.7561 68.2382 58.7561 65.3038 55.8239C63.0996 53.6175 62.5539 50.3772 63.672 47.6614L53.5462 37.5367V64.1803C54.2603 64.5342 54.935 65.0053 55.5298 65.6001C58.4609 68.5312 58.4609 73.2808 55.5298 76.2151C52.5986 79.1452 47.8459 79.1452 44.9169 76.2151C41.9857 73.2797 41.9857 68.5302 44.9169 65.6001C45.6416 64.8763 46.4805 64.3285 47.3758 63.9618V37.0698C46.4805 36.7031 45.6438 36.1606 44.9169 35.4316C42.6966 33.2124 42.1626 29.953 43.301 27.2264L32.1978 16.1211L2.87556 45.4401C0.412328 47.9055 0.412328 51.8993 2.87556 54.3625L45.6395 97.1233C48.1017 99.5865 52.0945 99.5865 54.5598 97.1233L97.1223 54.5608C99.5855 52.0976 99.5855 48.1016 97.1223 45.6384Z" fill="#F05133"/>
</svg>
