<svg width="94" height="100" viewBox="0 0 94 100" fill="none" xmlns="http://www.w3.org/2000/svg">
<path d="M54.9392 0.498047L50.0449 55.6923L28.0452 61.8321L6.10602 55.701L1.21698 0.498047H54.9392Z" fill="#E44D26"/>
<path d="M28.0781 57.1391L45.8549 52.1777L50.0374 5.01172H28.0781V57.1391Z" fill="#F16529"/>
<path d="M18.5639 18.5527H28.0781V11.7822H28.0548H11.2138L11.3748 13.5986L13.0278 32.2561H28.0781V25.4857H19.1785L18.5639 18.5527Z" fill="#EBEBEB"/>
<path d="M20.0796 35.6414H16.44H13.3283L14.2705 46.2719L28.0471 50.1219L28.0781 50.1133V43.0692L28.0486 43.0771L20.5584 41.0411L20.0796 35.6414Z" fill="#EBEBEB"/>
<path d="M28.0548 32.2559H36.3365L35.5558 41.0366L28.0548 43.0748V50.1185L41.8424 46.2718L41.9435 45.1279L43.5239 27.3036L43.688 25.4856H41.8757H28.0548V32.2559Z" fill="white"/>
<path d="M28.0548 18.5362V18.5527H44.2784H44.3L44.4349 17.0309L44.7413 13.5986L44.9022 11.7822H28.0548V15.9873V18.5362Z" fill="white"/>
<path d="M65.8892 99.5021L43.95 93.3709L39.061 38.168H92.7832L87.8889 93.3622L65.8892 99.5021Z" fill="#264DE4"/>
<path d="M83.6989 89.8477L87.8814 42.6816H65.9221V94.8091L83.6989 89.8477Z" fill="#2965F1"/>
<path d="M50.269 63.1558L50.8718 69.9261H65.922V63.1558H50.269Z" fill="#EBEBEB"/>
<path d="M49.0578 49.4521L49.6692 56.2226H65.9221V49.4521H65.8988H49.0578Z" fill="#EBEBEB"/>
<path d="M65.9221 80.7389L65.8926 80.7468L58.4024 78.7108L57.9236 73.311H54.284H51.1723L52.1145 83.9416L65.8911 87.7916L65.9221 87.7829V80.7389Z" fill="#EBEBEB"/>
<path d="M81.532 63.1556L82.7462 49.4521H65.8988V56.2226H75.3757L74.7637 63.1556H65.8988V69.926H74.1805L73.3998 78.7067L65.8988 80.7448V87.7886L79.6864 83.9418L79.7875 82.798L81.3679 64.9737L81.532 63.1556Z" fill="white"/>
</svg>
