<svg width="103" height="100" viewBox="0 0 103 100" fill="none" xmlns="http://www.w3.org/2000/svg">
<path d="M18.2396 0H84.7604C94.8458 0 103 8.11966 103 18.1624V81.8376C103 91.8803 94.8458 100 84.7604 100H18.2396C8.15417 100 0 91.8803 0 81.8376V18.1624C0 8.11966 8.15417 0 18.2396 0Z" fill="#330000"/>
<path d="M49.7833 59.829H33.8183L30.5567 69.8718C30.4708 70.2564 30.1275 70.5128 29.7412 70.47H21.6729C21.2008 70.47 21.0721 70.2136 21.2008 69.7008L35.02 30.0854C35.1487 29.6581 35.2775 29.188 35.4492 28.6752C35.6208 27.7777 35.7067 26.8376 35.7067 25.8974C35.6637 25.6837 35.8354 25.47 36.05 25.4273H47.1654C47.5087 25.4273 47.6804 25.5555 47.7233 25.7692L63.3879 69.7863C63.5167 70.2564 63.3879 70.47 62.9587 70.47H53.9892C53.6887 70.5128 53.3883 70.2991 53.3025 70L49.7833 59.829ZM36.3075 51.1538H47.2083C46.9508 50.2564 46.6075 49.188 46.2212 48.0769C45.835 46.923 45.4487 45.6837 45.0625 44.4017C44.6333 43.0769 44.2471 41.7948 43.8179 40.47C43.3887 39.1453 43.0025 37.9059 42.6592 36.6666C42.3158 35.47 42.0154 34.3589 41.715 33.3333H41.6292C41.2429 35.1709 40.7708 37.0085 40.17 38.8461C39.5262 40.8974 38.8825 43.0341 38.1958 45.1709C37.595 47.3504 36.9512 49.3589 36.3075 51.1538ZM72.9583 32.9059C71.5421 32.9487 70.1687 32.3931 69.1387 31.4102C68.1517 30.3418 67.6367 28.9316 67.6796 27.4786C67.6367 26.0256 68.1946 24.6581 69.2246 23.6752C70.2546 22.6923 71.6279 22.1794 73.0442 22.1794C74.7179 22.1794 76.0054 22.6923 76.9496 23.6752C77.8937 24.7008 78.4087 26.0683 78.3658 27.4786C78.4087 28.9316 77.8937 30.3418 76.8637 31.4102C75.8767 32.4359 74.4175 32.9914 72.9583 32.9059ZM68.1517 70V37.094C68.1517 36.6666 68.3233 36.4957 68.7096 36.4957H77.2071C77.5933 36.4957 77.765 36.7094 77.765 37.094V70C77.765 70.47 77.5933 70.6837 77.2071 70.6837H68.7954C68.3662 70.6837 68.1517 70.4273 68.1517 70Z" fill="#FF9A00"/>
</svg>
