<svg width="101" height="100" viewBox="0 0 101 100" fill="none" xmlns="http://www.w3.org/2000/svg">
<path d="M100.5 0H0.5V100H100.5V0Z" fill="#F7DF1E"/>
<path d="M67.6746 78.1254C69.6889 81.4143 72.3095 83.8318 76.9444 83.8318C80.8381 83.8318 83.3254 81.8857 83.3254 79.1969C83.3254 75.9746 80.7698 74.8334 76.4841 72.9588L74.1349 71.9508C67.3539 69.0619 62.8492 65.4429 62.8492 57.7921C62.8492 50.7445 68.219 45.3794 76.6111 45.3794C82.5857 45.3794 86.8809 47.4588 89.9762 52.9032L82.6587 57.6016C81.0476 54.7127 79.3095 53.5746 76.6111 53.5746C73.8587 53.5746 72.1143 55.3207 72.1143 57.6016C72.1143 60.4207 73.8603 61.5619 77.892 63.308L80.2412 64.3143C88.2254 67.7381 92.7333 71.2286 92.7333 79.0762C92.7333 87.5365 86.0873 92.1715 77.1619 92.1715C68.4349 92.1715 62.7968 88.0127 60.0381 82.5619L67.6746 78.1254ZM34.4793 78.9397C35.9555 81.5588 37.2984 83.773 40.527 83.773C43.6143 83.773 45.5619 82.5651 45.5619 77.8683V45.9159H54.9587V77.9953C54.9587 87.7254 49.2539 92.154 40.927 92.154C33.4032 92.154 29.046 88.2603 26.8301 83.5707L34.4793 78.9397Z" fill="black"/>
</svg>
