<svg width="85" height="100" viewBox="0 0 85 100" fill="none" xmlns="http://www.w3.org/2000/svg">
<path d="M3.68184 52.6185C3.68184 55.6735 3.43643 56.6685 2.80536 57.4017C2.103 58.0315 1.19118 58.3798 0.246033 58.3793L0.491449 60.1249C1.95675 60.1446 3.37856 59.6292 4.48821 58.676C5.08527 57.9509 5.52956 57.1136 5.79459 56.2138C6.05963 55.314 6.13996 54.3703 6.03082 53.439V41.8826H3.68184V52.5487V52.6185Z" fill="#4E4E4E"/>
<path d="M21.1999 51.2415C21.1999 52.5507 21.1999 53.7204 21.3051 54.7328H19.2191L19.0788 52.6555C18.6425 53.3905 18.0185 53.9974 17.2703 54.4144C16.5221 54.8314 15.6764 55.0436 14.8191 55.0296C12.7857 55.0296 10.3666 53.9298 10.3666 49.4434V41.9894H12.7156V48.9721C12.7156 51.3986 13.4693 53.0221 15.5904 53.0221C16.0268 53.0268 16.4597 52.9446 16.8638 52.7805C17.2679 52.6163 17.635 52.3735 17.9436 52.0661C18.2522 51.7588 18.4961 51.3933 18.6609 50.9909C18.8257 50.5885 18.9082 50.1573 18.9035 49.7227V41.9021H21.2525V51.1717L21.1999 51.2415Z" fill="#4E4E4E"/>
<path d="M25.6524 46.1424C25.6524 44.5189 25.6524 43.1922 25.5472 41.9877H27.6508L27.756 44.1698C28.2246 43.3814 28.8994 42.7345 29.7082 42.298C30.517 41.8614 31.4296 41.6516 32.3487 41.6909C35.469 41.6909 37.818 44.292 37.818 48.1674C37.818 52.7411 34.9957 55.0105 31.9456 55.0105C31.1649 55.0452 30.3884 54.8786 29.6913 54.5269C28.9942 54.1752 28.4 53.6503 27.9663 53.003V59.9857H25.6524V46.1948V46.1424ZM27.9663 49.5465C27.9727 49.8633 28.0079 50.1788 28.0715 50.4892C28.2704 51.2643 28.7232 51.9512 29.3581 52.4413C29.9931 52.9314 30.7741 53.1966 31.5774 53.195C34.0491 53.195 35.5041 51.1875 35.5041 48.2722C35.5041 45.7235 34.1368 43.5414 31.6651 43.5414C30.687 43.6211 29.7716 44.0535 29.0907 44.7573C28.4098 45.4611 28.01 46.388 27.9663 47.3644V49.5465Z" fill="#4E4E4E"/>
<path d="M42.0033 41.9758L44.8255 49.4997C45.1235 50.3376 45.4391 51.3501 45.6494 52.1008C45.8949 51.3327 46.1578 50.3551 46.4733 49.4473L49.0327 41.9758H51.5043L47.9984 51.0534C46.2454 55.4176 45.1761 57.6695 43.5634 59.0311C42.7511 59.77 41.7608 60.2872 40.6885 60.5324L40.1101 58.5773C40.8598 58.3319 41.5558 57.9469 42.161 57.4426C43.0162 56.7485 43.6949 55.8633 44.1419 54.859C44.2376 54.685 44.3028 54.4961 44.3347 54.3003C44.3148 54.0897 44.2615 53.8835 44.1769 53.6894L39.4089 41.9409H41.9682L42.0033 41.9758Z" fill="#4E4E4E"/>
<path d="M57.7402 38.3137V41.9796H61.1059V43.7253H57.7402V50.6033C57.7402 52.1744 58.196 53.0822 59.4932 53.0822C59.9539 53.0897 60.4136 53.0369 60.8605 52.9251L60.9657 54.6707C60.2956 54.9019 59.5884 55.0084 58.8796 54.985C58.4102 55.0142 57.94 54.942 57.5013 54.7733C57.0625 54.6045 56.6657 54.3433 56.3378 54.0074C55.6238 53.0563 55.2981 51.8712 55.4263 50.6906V43.7079H53.4279V41.9622H55.4614V38.8549L57.7402 38.3137Z" fill="#4E4E4E"/>
<path d="M65.4328 48.7627C65.3853 49.3548 65.4673 49.95 65.6734 50.5074C65.8794 51.0647 66.2046 51.5709 66.6263 51.9908C67.048 52.4108 67.5563 52.7346 68.1159 52.9398C68.6756 53.145 69.2734 53.2267 69.8679 53.1793C71.0703 53.2061 72.265 52.9801 73.3738 52.516L73.777 54.2616C72.4163 54.8198 70.9532 55.0874 69.4822 55.0472C68.6246 55.1057 67.7645 54.9787 66.9609 54.6751C66.1572 54.3714 65.429 53.8982 64.8262 53.288C64.2234 52.6778 63.7603 51.9449 63.4687 51.1397C63.177 50.3345 63.0637 49.476 63.1365 48.6231C63.1365 44.7826 65.4328 41.7451 69.1842 41.7451C73.3913 41.7451 74.4431 45.411 74.4431 47.7503C74.4656 48.1107 74.4656 48.4722 74.4431 48.8326H65.3803L65.4328 48.7627ZM72.3045 47.0171C72.3721 46.5504 72.3385 46.0746 72.206 45.6219C72.0734 45.1693 71.8449 44.7501 71.5359 44.3928C71.2269 44.0355 70.8447 43.7483 70.4148 43.5505C69.9849 43.3527 69.5175 43.2491 69.044 43.2464C68.0808 43.3158 67.1784 43.741 66.5137 44.4385C65.8489 45.136 65.4697 46.0556 65.4504 47.0171H72.3045Z" fill="#4E4E4E"/>
<path d="M78.0072 45.9456C78.0072 44.4443 78.0072 43.1525 77.902 41.9654H80.0056V44.4617H80.1108C80.3316 43.6913 80.7878 43.0084 81.416 42.5079C82.0443 42.0073 82.8134 41.714 83.6167 41.6686C83.8378 41.6397 84.0617 41.6397 84.2828 41.6686V43.8508C84.0149 43.8199 83.7444 43.8199 83.4765 43.8508C82.6807 43.8814 81.9234 44.1996 81.346 44.7457C80.7685 45.2918 80.4105 46.0286 80.3387 46.8184C80.2731 47.1756 80.2379 47.5377 80.2335 47.9007V54.6914H77.9196V45.963L78.0072 45.9456Z" fill="#4E4E4E"/>
<path d="M76.9778 6.91288C77.0498 8.08565 76.7696 9.2532 76.1729 10.2668C75.5762 11.2804 74.6901 12.0942 73.6273 12.6045C72.5645 13.1148 71.3733 13.2985 70.2053 13.1323C69.0373 12.966 67.9455 12.4572 67.0689 11.6708C66.1923 10.8844 65.5706 9.85594 65.283 8.71643C64.9954 7.57692 65.055 6.37794 65.454 5.27225C65.8531 4.16657 66.5737 3.2042 67.5239 2.50776C68.4742 1.81132 69.6111 1.41233 70.7898 1.36162C71.5627 1.31927 72.3363 1.42948 73.0662 1.68591C73.7961 1.94235 74.4679 2.33995 75.043 2.85584C75.6181 3.37174 76.0851 3.99576 76.4171 4.69202C76.7491 5.38827 76.9397 6.14304 76.9778 6.91288Z" fill="#767677"/>
<path d="M42.3153 75.2792C26.5387 75.2792 12.6727 69.6406 5.50305 61.3137C8.28489 68.8047 13.3044 75.2673 19.886 79.8314C26.4674 84.3957 34.2953 86.8424 42.3153 86.8424C50.3355 86.8424 58.1631 84.3957 64.7448 79.8314C71.3263 75.2673 76.3458 68.8047 79.1277 61.3137C71.9756 69.6406 58.1621 75.2792 42.3153 75.2792Z" fill="#F37726"/>
<path d="M42.3153 21.1316C58.092 21.1316 71.9581 26.7701 79.1277 35.097C76.3458 27.606 71.3263 21.1435 64.7448 16.5793C58.1631 12.0151 50.3355 9.56836 42.3153 9.56836C34.2953 9.56836 26.4674 12.0151 19.886 16.5793C13.3044 21.1435 8.28489 27.606 5.50305 35.097C12.6727 26.7527 26.4686 21.1316 42.3153 21.1316Z" fill="#F37726"/>
<path d="M20.5968 91.4835C20.6893 92.9607 20.3382 94.4318 19.5881 95.7096C18.838 96.9873 17.723 98.0137 16.385 98.6581C15.047 99.3025 13.5467 99.5356 12.0752 99.3278C10.6037 99.12 9.22763 98.4806 8.12231 97.4912C7.01698 96.5018 6.23246 95.2071 5.86868 93.7721C5.5049 92.3371 5.57834 90.8267 6.07963 89.4334C6.58093 88.04 7.48739 86.8269 8.68352 85.9484C9.87967 85.07 11.3113 84.566 12.7961 84.5008C13.7688 84.449 14.7421 84.5885 15.6606 84.9114C16.5791 85.2343 17.4247 85.7343 18.1491 86.3827C18.8735 87.0312 19.4626 87.8154 19.8825 88.6906C20.3025 89.5658 20.5452 90.5149 20.5968 91.4835Z" fill="#9E9E9E"/>
<path d="M7.29607 19.2341C6.44596 19.2575 5.60789 19.03 4.88725 18.5803C4.16661 18.1307 3.59558 17.4788 3.24596 16.7068C2.89634 15.9348 2.78375 15.0771 2.92234 14.2415C3.06093 13.4059 3.44452 12.6298 4.02487 12.0108C4.60522 11.3917 5.35641 10.9574 6.18399 10.7624C7.01155 10.5674 7.87855 10.6204 8.67596 10.9148C9.47335 11.2091 10.1655 11.7317 10.6655 12.4168C11.1654 13.102 11.4508 13.919 11.4857 14.7651C11.5189 15.9093 11.0976 17.0204 10.3132 17.8571C9.52876 18.6938 8.44458 19.1886 7.29607 19.2341Z" fill="#616262"/>
</svg>
