<svg width="121" height="94" viewBox="0 0 121 94" fill="none" xmlns="http://www.w3.org/2000/svg">
<path d="M11.3974 1.18111C12.5574 3.28521 13.764 5.09666 15.0226 6.6558L15.0378 6.67113C15.0421 6.67667 15.0486 6.68105 15.0531 6.68647C14.4733 6.60129 13.8761 6.54185 13.2557 6.54842C12.0303 6.56141 10.7144 6.77339 9.29539 7.22318C11.7325 9.27784 13.8076 10.78 15.6317 11.9465C15.5871 11.9317 15.5391 11.915 15.4946 11.9005L15.6317 11.9772C12.8057 11.0867 9.75705 10.9778 6.18808 12.6826C8.7508 14.2971 10.9014 15.4752 12.799 16.3631C12.7435 16.3548 12.6869 16.3402 12.6314 16.3324L12.7685 16.4091C9.8113 15.8964 6.74227 16.1846 3.40074 18.4027C5.5794 19.3801 7.47217 20.1179 9.15841 20.6876H9.17364L9.2803 20.749C6.46036 20.8593 3.66567 21.7433 0.933188 24.3527C3.32021 24.9489 5.3639 25.347 7.16309 25.6102C7.11258 25.6205 7.06127 25.63 7.01078 25.6409C6.94055 25.6397 6.86746 25.6421 6.79753 25.6409L6.8737 25.6716C4.7716 26.1521 2.72186 27.2132 0.720241 29.2447C2.34208 29.5975 3.80144 29.8716 5.1375 30.0728C3.49267 30.8733 1.93033 32.1138 0.506996 34.014C2.37591 34.1601 4.03163 34.2225 5.51832 34.2287C3.71961 35.0666 2.02469 36.3822 0.522225 38.5073C3.1916 38.6416 5.42285 38.6358 7.34594 38.5226C7.30998 38.5375 7.27522 38.5535 7.23934 38.5686C7.12246 38.5792 7.00513 38.5867 6.88898 38.5993L7.05655 38.6606C5.05714 39.5444 3.20657 40.9766 1.61873 43.3992C4.93617 43.4479 7.56396 43.2903 9.76769 43.0158C9.70057 43.0341 9.63657 43.0579 9.56966 43.0771C9.4846 43.0821 9.39472 43.0862 9.31073 43.0925L9.41734 43.1231C6.81835 43.9026 4.41849 45.4041 2.42604 48.4445C5.10588 48.4838 7.34343 48.3817 9.26506 48.1991C9.22335 48.222 9.18472 48.2524 9.1432 48.2758C6.84724 49.5653 4.87351 51.5021 3.56827 54.7782C5.92508 54.3288 7.90058 53.8545 9.61538 53.352C9.58695 53.3747 9.55221 53.3902 9.52398 53.4133L9.63059 53.398C7.86546 54.7242 6.38152 56.5823 5.3809 59.3328C7.00354 58.9717 8.45329 58.5921 9.75247 58.2133C8.58624 59.6329 7.68542 61.405 7.17832 63.734C8.94033 63.0807 10.4687 62.4521 11.8241 61.8324C11.8077 61.8517 11.7946 61.8742 11.7784 61.8937C11.7507 61.9157 11.7139 61.933 11.687 61.955L11.7327 61.9397C10.4893 63.4397 9.54062 65.3261 9.0671 67.8285C11.5479 66.8298 13.5657 65.8713 15.2664 64.9608C15.2184 65.0076 15.1593 65.0515 15.1141 65.0987L15.1598 65.0834C13.6557 66.7443 12.5327 68.8779 12.0829 71.8155C15.0112 70.514 17.2674 69.3044 19.1201 68.1657C19.1005 68.1859 19.0785 68.2068 19.0592 68.227L19.181 68.1657C17.0775 69.9793 15.4638 72.3859 14.9009 76.0633C18.8474 74.3092 21.6078 72.7207 23.7507 71.248C22.8304 73.1218 22.3442 75.3052 22.5779 78.0417C26.3921 75.0955 28.8071 72.7201 30.6051 70.6194C30.6021 70.6497 30.6076 70.681 30.6051 70.7114C30.4961 72.0429 30.5785 73.4865 30.9707 75.0819C33.232 71.1705 35.4936 69.5491 37.7944 68.2119C34.9168 70.0898 35.4335 71.6116 35.4335 73.3493C38.8553 69.7212 43.6155 65.8679 45.0753 63.458C43.1238 66.4086 42.3445 69.2108 41.8308 71.6776C31.846 76.994 25.7525 78.3857 18.9373 80.5105C21.5811 81.4867 24.4189 82.435 23.248 83.7922L20.1254 86.936C22.1219 86.3111 24.1612 85.4102 25.9288 86.6293C25.7553 88.278 23.6898 89.1185 21.9227 90.0797C25.0336 88.9512 25.7048 89.2169 26.5228 89.4816C26.9314 91.4573 25.5122 92.5167 24.5884 93.8215C32.4242 87.8231 42.6427 83.0874 49.8431 81.1085C59.9711 77.6747 73.0388 74.0951 76.5907 65.3896L80.1397 51.0358C84.3035 46.4989 88.1327 41.8021 89.949 36.0841C101.543 33.8258 110.922 34.6353 120.702 34.8879C119.811 34.7384 90.8474 29.7967 90.8474 29.7967C82.3811 18.134 69.7506 26.066 65.5927 37.5871C64.5432 40.495 58.5543 40.4886 56.8193 37.5718C49.9589 22.7014 29.1269 6.97549 11.3974 1.18111Z" fill="black"/>
<path d="M11.1956 0.343597C12.3638 2.46242 13.5783 4.27023 14.8464 5.83694C14.2666 5.7518 13.6693 5.7017 13.0489 5.70827C11.8236 5.72127 10.5136 5.92608 9.0945 6.37589C11.5709 8.46368 13.6637 9.98728 15.5097 11.1615C12.6579 10.2444 9.58681 10.1138 5.97925 11.8371C8.61431 13.4972 10.8261 14.697 12.762 15.5932C9.74404 15.0332 6.61465 15.2883 3.19912 17.5557C5.45416 18.5674 7.40429 19.3269 9.13481 19.9043C6.29426 20.0042 3.48263 20.8875 0.730822 23.5155C3.11784 24.1117 5.16295 24.507 6.96196 24.7703C4.76012 25.2182 2.60028 26.2815 0.506995 28.4057C2.12884 28.7585 3.58874 29.0247 4.92481 29.2261C3.27997 30.0265 1.72259 31.267 0.299255 33.1672C2.16817 33.3133 3.82162 33.3781 5.30825 33.3843C3.50949 34.2222 1.8257 35.5462 0.323228 37.6713C2.99254 37.8056 5.22232 37.7925 7.14572 37.6793C5.03195 38.5492 3.08378 40.0194 1.41772 42.5614C4.73516 42.6102 7.36252 42.4498 9.56607 42.1753C6.83108 42.9229 4.29936 44.4262 2.21641 47.6044C4.89624 47.6437 7.13307 47.5456 9.05482 47.3631C6.70541 48.652 4.68758 50.6072 3.35886 53.9424C5.77762 53.4813 7.80474 52.9876 9.55024 52.4706C7.73203 53.8027 6.20375 55.6738 5.18032 58.4868C6.80295 58.1256 8.24304 57.7476 9.54222 57.3688C8.37593 58.7884 7.47694 60.5652 6.96984 62.8943C8.73185 62.241 10.256 61.6079 11.6114 60.9881C10.3237 62.5051 9.34017 64.4256 8.8552 66.9882C11.336 65.9895 13.3538 65.0354 15.0545 64.1249C13.4954 65.8028 12.3355 67.9614 11.875 70.9696C14.8953 69.6272 17.2126 68.3836 19.0968 67.2135C16.9329 69.0393 15.269 71.4671 14.695 75.2164C18.6416 73.4623 21.3958 71.8714 23.5387 70.3986C22.6184 72.2725 22.1306 74.4666 22.3643 77.2027C26.1786 74.2565 28.5948 71.8717 30.3928 69.7712C30.2715 71.1277 30.3672 72.6032 30.7683 74.2351C33.5066 69.4986 36.2278 68.1157 39.0439 66.5351C34.5584 68.8086 35.2234 70.5202 35.2234 72.5062C38.6451 68.8782 43.417 65.0309 44.8768 62.6211C42.9253 65.5717 42.1309 68.3659 41.6173 70.8327C31.6325 76.1491 25.553 77.5383 18.7373 79.6637C21.381 80.64 24.2142 81.5961 23.0433 82.9533L19.9196 86.09C21.9162 85.4652 23.9519 84.5734 25.7195 85.7925C25.546 87.4412 23.4761 88.2737 21.7091 89.2348C24.8199 88.1063 25.4927 88.367 26.3106 88.6316C26.7193 90.6073 25.3012 91.67 24.3774 92.9749C32.2132 86.9765 42.4378 82.2376 49.6382 80.2588C59.7662 76.8249 72.8253 73.2558 76.3766 64.551L79.9397 50.194C84.1034 45.6572 87.9333 40.9524 89.7502 35.2343C101.344 32.9761 110.719 33.7913 120.499 34.044C119.608 33.8944 90.637 28.9527 90.637 28.9527C82.1706 17.2901 69.55 25.2174 65.392 36.7383C64.3426 39.6461 58.3555 39.647 56.6205 36.7302C49.7601 21.8598 28.9251 6.13797 11.1956 0.343597Z" fill="#008080"/>
<path d="M79.5979 30.7779L79.5217 30.9006C79.2213 31.4641 78.7131 31.8488 77.9985 32.0814C77.284 32.3141 76.3686 32.3886 75.3025 32.3421L74.6323 32.3115L75.1197 32.7869C75.3672 33.0265 75.4363 33.2178 75.4396 33.3849C75.4432 33.5521 75.3716 33.7327 75.2111 33.937C74.89 34.3458 74.2524 34.7896 73.6574 35.2406L73.4594 35.3786L73.5965 35.5779C74.0928 36.3445 74.3201 36.9346 74.3733 37.3875C74.4266 37.8404 74.322 38.1653 74.1144 38.4456C73.6991 39.0063 72.7874 39.3862 71.9667 39.8564L71.8144 39.9331L71.8448 40.1171C71.9154 40.5483 71.8 40.9006 71.4945 41.2519C71.1889 41.6032 70.6746 41.9382 69.9865 42.2334L69.8038 42.3101L69.8342 42.5094C69.9715 43.4326 70.2471 44.236 70.8243 44.7484C71.3523 45.2171 72.1511 45.3407 73.1701 45.1317C73.3477 46.1159 73.6023 47.0108 74.1906 47.6007C74.7869 48.1986 75.7309 48.3754 76.9932 48.0454C77.2773 48.7347 77.6924 49.2259 78.1662 49.5483C78.6863 49.9023 79.366 50.0451 79.925 50.22L80.2563 49.8613C79.7014 49.6878 78.8821 49.4196 78.4403 49.1189C77.9985 48.8183 77.6395 48.4058 77.3893 47.6928L77.3131 47.4474L77.0694 47.5241C75.7714 47.9257 75.0517 47.7448 74.5561 47.248C74.0607 46.7513 73.782 45.8532 73.6118 44.8097L73.5661 44.5337L73.2919 44.6103C72.2221 44.8914 71.5904 44.7476 71.1594 44.365C70.7568 44.0075 70.5184 43.3738 70.3826 42.5861C71.0024 42.2976 71.5338 41.982 71.8754 41.5893C72.2091 41.2056 72.3535 40.732 72.3323 40.2398C73.0885 39.8211 74.0006 39.4612 74.5257 38.7523C74.8003 38.3817 74.9429 37.8944 74.876 37.3261C74.8153 36.8091 74.5638 36.2117 74.1297 35.5012C74.6625 35.1061 75.2409 34.7101 75.6072 34.2437C75.8109 33.9844 75.964 33.6975 75.9575 33.3696C75.9538 33.1889 75.7813 33.0242 75.6833 32.8482C76.61 32.8604 77.4542 32.799 78.1509 32.5722C78.8849 32.3333 79.4615 31.8978 79.8416 31.2994C80.9384 31.3049 82.0741 31.5478 83.2231 31.6981C84.4034 31.8525 85.6045 31.8939 86.7417 31.3914L86.5285 30.916C85.5223 31.3607 84.4474 31.3422 83.2993 31.192C82.1512 31.0418 80.9546 30.7692 79.7502 30.778L79.5979 30.7779Z" fill="white"/>
<path d="M83.8605 30.5871C83.8605 31.7905 82.8914 32.7661 81.6961 32.7661C80.5008 32.7661 79.5318 31.7905 79.5318 30.5871C79.5318 29.3837 80.5008 28.4081 81.6961 28.4081C82.8914 28.4081 83.8605 29.3836 83.8605 30.5871Z" fill="white" stroke="white" stroke-width="0.75"/>
<path d="M90.3246 28.543C88.3815 31.0879 87.8929 30.4306 86.71 30.8573L86.512 30.9339L86.5425 31.1486C86.9979 33.7047 88.5026 34.5169 89.6769 35.446L89.7425 35.2393L90.0551 35.1793C88.8778 34.248 87.5897 33.4591 87.1213 31.2866C87.9827 31.0814 88.8048 31.3438 90.6399 28.9403L90.3246 28.543Z" fill="white"/>
<path d="M15.507 11.1554C19.1787 13.4475 25.2215 15.8111 29.1025 18.2803C31.2375 19.6489 33.1551 21.0127 34.6469 22.1907C36.1388 23.3689 37.2419 24.5861 37.6477 24.9818C38.0534 25.3775 38.3289 25.1905 38.0589 24.6751C37.789 24.1596 36.4601 22.968 34.9516 21.7767C33.4431 20.5854 31.5243 19.2276 29.3767 17.8509C25.0814 15.0974 20.0398 12.6356 15.507 11.1554Z" fill="white"/>
<path d="M14.8465 5.83585C16.3857 6.1937 18.6574 7.51535 21.1835 8.92937C23.7096 10.3434 26.4628 12.0834 28.982 13.7753C31.5014 15.4672 33.4438 16.948 34.9966 18.1408C36.4712 19.4113 37.1993 20.2339 37.4815 20.2315C37.5202 20.2393 37.5583 20.2399 37.6186 20.2315C37.6789 20.223 37.7806 20.1762 37.8318 20.0781C37.883 19.98 37.8632 19.8976 37.847 19.8481C37.8308 19.7985 37.8222 19.7722 37.8013 19.7407C37.718 19.6148 37.5909 19.4968 37.4053 19.3267C37.0341 18.9865 36.4209 18.4862 35.6384 17.8851C34.0734 16.6829 31.7992 15.0434 29.2715 13.3459C26.7437 11.6483 23.9711 9.89328 21.4271 8.46928C20.5228 8.13192 16.0883 5.77071 14.8465 5.83585Z" fill="white"/>
<path d="M12.7428 15.5947C17.4553 17.5312 24.1593 19.8059 28.634 22.6377C31.0383 24.1748 33.1325 25.706 34.6964 26.9622C35.4783 27.5903 36.1314 28.1549 36.6156 28.6031C37.0998 29.0513 37.3729 29.4582 37.5295 29.5693C37.8573 29.8017 38.1081 29.6473 37.956 29.2778C37.8411 28.9989 37.462 28.679 36.9659 28.2197C36.4698 27.7605 35.8057 27.1976 35.0162 26.5635C33.4373 25.2952 31.3294 23.7408 28.9082 22.1928C24.0658 19.0971 18.2767 16.3756 12.7428 15.5947Z" fill="white"/>
<path d="M9.11627 19.8983C12.789 19.9008 20.3756 23.2853 23.5734 24.9815C28.7584 27.7655 33.4733 31.3442 36.0791 33.8452C36.368 34.1225 36.7901 33.8777 36.4599 33.4925C34.0395 30.6688 29.0405 27.3412 23.8172 24.5365C18.5939 21.7319 13.1855 19.8942 9.11627 19.8983Z" fill="white"/>
<path d="M6.99417 24.7687C12.5156 25.5821 19.1341 27.8259 23.9562 30.2572C26.6473 31.6328 29.0468 33.1062 30.887 34.4131C32.727 35.7199 34.0856 37.1913 34.4208 37.5721C34.7561 37.9528 35.1554 37.9687 34.8473 37.2961C34.5392 36.6234 33.0406 35.3078 31.1764 33.9837C29.3122 32.6595 26.897 31.1834 24.1851 29.7971C18.761 27.0244 12.5838 24.8431 6.99417 24.7687Z" fill="white"/>
<path d="M8.81661 28.906C7.44501 28.7856 6.21034 29.0687 4.95244 29.227C9.85845 28.7642 16.7187 31.0324 21.292 33.154C26.6789 35.6966 31.152 39.1874 33.2949 41.4044C33.6304 41.7515 33.8674 41.3092 33.691 41.0823C31.6957 38.5177 26.9443 35.2457 21.5051 32.6786C17.426 30.7533 12.9318 29.2676 8.81661 28.906Z" fill="white"/>
<path d="M5.33074 33.3576C10.1587 33.7179 16.6225 34.8818 21.1504 36.9744C25.7043 39.1188 29.16 41.8992 30.8986 43.4768C31.1662 43.7195 31.6393 43.5476 31.2642 43.1088C29.6774 41.2525 25.9878 38.6851 21.3784 36.5146C16.7692 34.3442 11.1705 32.9538 5.33074 33.3576Z" fill="white"/>
<path d="M9.66668 37.4028C8.64808 37.3681 8.17027 37.56 7.18756 37.6669C10.4643 37.8123 15.6717 38.6897 18.5472 39.6724C22.2788 40.9759 25.3471 42.9392 27.0924 44.4725C27.4294 44.7685 27.6807 44.3713 27.458 44.1197C25.8234 42.273 22.5014 40.5044 18.7146 39.1817C15.8747 38.1898 12.7226 37.5069 9.66668 37.4028Z" fill="white"/>
<path d="M9.52601 42.1868C16.5308 42.6627 20.7664 43.9052 24.0131 46.8334C24.2564 47.0528 24.6405 46.7508 24.3787 46.4653C21.0468 42.831 14.4869 41.8183 9.52601 42.1868Z" fill="white"/>
<path d="M14.9199 46.4229C12.7965 46.2509 11.0197 46.7181 9.08449 47.3669C14.7478 46.4581 17.1026 46.8939 21.3932 48.9225C21.8824 49.1537 21.8537 48.6089 21.637 48.4778C19.3577 47.0984 17.0433 46.5948 14.9199 46.4229Z" fill="white"/>
<path d="M14.7181 50.3942C12.7104 50.5735 11.0057 51.2675 9.60013 52.4185C15.2084 50.2421 16.7584 50.6752 21.0478 51.8994C21.6119 52.0604 21.4366 51.5134 21.2154 51.424C18.6469 50.3873 16.7259 50.2151 14.7181 50.3942Z" fill="white"/>
<path d="M25.8301 53.8913C22.8378 53.5655 19.4668 53.9308 16.5081 54.474C13.5496 55.0171 11.0051 56.1207 9.56883 57.2969C14.4879 55.2053 15.3843 55.2098 16.5999 54.98C19.5146 54.445 22.4038 54.2363 25.8001 54.3973C26.1081 54.412 26.0918 53.9198 25.8301 53.8913Z" fill="white"/>
<path d="M27.5669 56.3295C24.3242 56.2062 20.9749 57.0141 18.0774 57.8477C15.1801 58.6814 13.0296 59.8189 11.6114 60.9802C14.4809 59.5906 17.1511 58.6499 18.2144 58.3384C21.0712 57.5164 23.9531 56.8048 27.5975 56.8509C27.8805 56.8546 28.0634 56.3484 27.5669 56.3295Z" fill="white"/>
<path d="M30.2149 58.3367C27.1608 58.7907 23.9587 59.6989 21.1669 60.6523C18.3755 61.6059 16.3885 62.7383 15.0923 64.094C18.4126 62.1752 20.2387 61.5023 21.3192 61.1278C24.0763 60.186 26.6509 59.5305 30.3059 58.8428C30.7446 58.7602 30.3926 58.3103 30.2149 58.3367Z" fill="white"/>
<path d="M31.7682 60.8979C25.6435 61.8802 21.6745 64.5406 19.1519 67.1787C23.0614 64.2132 25.7811 62.6194 31.8746 61.4038C32.2603 61.3269 32.144 60.8377 31.7682 60.8979Z" fill="white"/>
<path d="M34.7526 63.1516C28.5924 64.1069 25.0399 67.8771 23.5606 70.3657C27.4581 66.4459 30.4913 64.3125 34.859 63.6577C35.3011 63.5914 35.1885 63.0839 34.7526 63.1516Z" fill="white"/>
<path d="M36.6118 65.1155C35.651 65.2362 34.3436 65.9212 33.1084 66.7103C31.8732 67.4994 30.9412 68.4595 30.3854 69.6965C31.8733 68.1505 32.469 67.7322 33.3826 67.1397C34.5685 66.3821 35.7636 65.9049 36.7336 65.6215C37.1883 65.4887 36.8447 65.0862 36.6118 65.1155Z" fill="white"/>
<path d="M83.8605 30.5871C83.8605 31.7905 82.8914 32.7661 81.6961 32.7661C80.5008 32.7661 79.5318 31.7905 79.5318 30.5871C79.5318 29.3837 80.5008 28.4081 81.6961 28.4081C82.8914 28.4081 83.8605 29.3836 83.8605 30.5871Z" fill="#37C871"/>
</svg>
