<svg width="102" height="100" viewBox="0 0 102 100" fill="none" xmlns="http://www.w3.org/2000/svg">
<path d="M93.8533 77.4418C88.3194 77.2916 84.0922 77.8067 80.4783 79.3323C79.4513 79.766 77.8137 79.7772 77.6462 81.0656C78.2105 81.6579 78.2981 82.5421 78.7468 83.2705C79.6098 84.6684 81.0665 86.5414 82.3662 87.5239C83.7865 88.5969 85.2503 89.7449 86.7729 90.674C89.481 92.3274 92.5045 93.2712 95.1124 94.9274C96.649 95.9035 98.1759 97.133 99.6754 98.2347C100.416 98.7793 100.915 99.6263 101.878 99.9674C101.878 99.9154 101.878 99.8628 101.878 99.8102C101.372 99.1653 101.241 98.2783 100.777 97.6046C100.095 96.9225 99.4132 96.2397 98.7311 95.5569C96.731 92.8993 94.1919 90.5653 91.493 88.6263C89.3408 87.0797 84.5233 84.9905 83.6253 82.4832C83.5727 82.4305 83.5208 82.3779 83.4675 82.3253C84.9937 82.1533 86.7806 81.6004 88.189 81.2228C90.555 80.5877 92.6693 80.7519 95.1124 80.1204C96.2137 79.8053 97.315 79.4895 98.417 79.1751C98.417 78.9646 98.417 78.7554 98.417 78.5449C97.1818 77.2762 96.3013 75.5976 94.9546 74.4495C91.4313 71.446 87.5854 68.4453 83.6253 65.9431C81.4289 64.5553 78.7146 63.6535 76.3871 62.4775C75.6041 62.082 74.2287 61.8764 73.7113 61.2172C72.4887 59.6567 71.8227 57.679 70.8798 55.8615C68.9043 52.054 66.9646 47.8955 65.2148 43.8899C64.0209 41.1583 63.2414 38.4643 61.7531 36.0136C54.6082 24.2545 46.9172 17.1567 35.0032 10.1803C32.4682 8.69663 29.416 8.11067 26.1905 7.3452C24.4604 7.24035 22.7288 7.13481 20.998 7.02997C19.9415 6.58793 18.8423 5.29404 17.8511 4.66702C13.9042 2.17111 3.78066 -3.25789 0.85736 3.87958C-0.988455 8.38477 3.61592 12.7811 5.26264 15.0638C6.41864 16.6653 7.89851 18.4608 8.72433 20.2618C9.26763 21.4454 9.36157 22.6324 9.82635 23.8851C10.9704 26.9703 11.9652 30.327 13.4451 33.1785C14.1931 34.6211 15.0175 36.1411 15.9632 37.4315C16.5429 38.2231 17.5363 38.5719 17.6933 39.7945C16.7217 41.1555 16.6663 43.2683 16.1202 44.9926C13.661 52.755 14.5885 62.4034 18.1658 68.1484C19.2636 69.9119 21.849 73.6944 25.404 72.2439C28.5137 70.9758 27.819 67.0467 28.7086 63.5802C28.9098 62.794 28.7864 62.2164 29.1804 61.69C29.1804 61.7421 29.1804 61.7949 29.1804 61.8477C30.1247 63.7378 31.069 65.6278 32.0133 67.5176C34.1094 70.8972 37.8297 74.4291 40.9823 76.8123C42.6171 78.0481 43.9042 80.1849 46.0178 80.9077C46.0178 80.8551 46.0178 80.8032 46.0178 80.7498C45.9645 80.7498 45.9126 80.7498 45.86 80.7498C45.4506 80.1105 44.8099 79.846 44.2869 79.3323C43.0552 78.1239 41.6861 76.6214 40.6675 75.2369C37.8003 71.34 35.2661 67.0747 32.9576 62.6351C31.8548 60.5154 30.8965 58.1765 29.967 56.0191C29.6087 55.1872 29.613 53.9296 28.8664 53.4986C27.8485 55.0796 26.3489 56.3577 25.5617 58.2244C24.3026 61.2083 24.14 64.8472 23.6738 68.6207C23.3976 68.7197 23.5203 68.6516 23.3584 68.7779C21.1669 68.2488 20.3965 65.9903 19.5826 64.053C17.5223 59.1531 17.1395 51.2631 18.9524 45.623C19.4214 44.164 21.5413 39.5677 20.6832 38.2197C20.2738 36.8744 18.9222 36.0966 18.1658 35.0686C17.2299 33.798 16.2955 32.1252 15.6477 30.658C13.9617 26.8374 13.1745 22.5487 11.3995 18.687C10.5512 16.8408 9.11621 14.9726 7.93777 13.3314C6.63315 11.5133 5.17221 10.1741 4.16132 7.97502C3.80169 7.19376 3.31307 5.94302 3.84656 5.13986C4.01621 4.59776 4.25526 4.37165 4.79084 4.19481C5.70359 3.49032 8.24553 4.42919 9.19612 4.82463C11.7198 5.87383 13.8257 6.87298 15.9632 8.29025C16.9895 8.97144 18.027 10.2886 19.2671 10.6532C19.7389 10.6532 20.2114 10.6532 20.6832 10.6532C22.8985 11.163 25.3801 10.8115 27.4496 11.4406C31.1075 12.5535 34.3856 14.2846 37.3628 16.1665C46.4328 21.8991 53.8483 30.0597 58.9209 39.7945C59.7369 41.3618 60.0903 42.8578 60.8088 44.5204C62.2593 47.8729 64.0861 51.3227 65.5289 54.6012C66.9688 57.8722 68.3722 61.1733 70.4073 63.8954C71.4778 65.3263 75.6104 66.0938 77.4885 66.8881C78.805 67.4453 80.9621 68.0256 82.2092 68.7779C84.5913 70.2165 86.8991 71.9288 89.1333 73.5042C90.25 74.2916 93.6823 76.0186 93.8533 77.4418Z" fill="#00618A"/>
<path fill-rule="evenodd" clip-rule="evenodd" d="M23.5162 17.953C22.3623 17.9317 21.5463 18.0791 20.6833 18.2676C20.6833 18.3203 20.6833 18.373 20.6833 18.4252C20.7359 18.4252 20.7885 18.4252 20.8411 18.4252C21.3914 19.5573 22.363 20.2857 23.0437 21.261C23.5681 22.3636 24.0924 23.4663 24.6175 24.5683C24.6694 24.5161 24.7227 24.4634 24.7745 24.4113C25.749 23.7239 26.1955 22.6241 26.1906 20.9457C25.8001 20.5345 25.7427 20.0185 25.4041 19.5278C24.954 18.874 24.0833 18.5026 23.5162 17.953Z" fill="#00618A"/>
</svg>
