<svg width="87" height="100" viewBox="0 0 87 100" fill="none" xmlns="http://www.w3.org/2000/svg">
<path d="M43.5001 99.2188C42.1989 99.2188 40.8784 98.8672 39.7326 98.2031L27.7507 91.0742C25.9641 90.0586 26.838 89.707 27.4206 89.5117C29.8092 88.6719 30.2947 88.4961 32.8387 87.0312C33.1105 86.875 33.4601 86.9336 33.732 87.1094L42.9369 92.5977C43.267 92.793 43.7331 92.793 44.0438 92.5977L79.9119 71.7773C80.242 71.582 80.4556 71.1914 80.4556 70.8008V29.1602C80.4556 28.75 80.242 28.3789 79.8925 28.1641L44.0438 7.36328C43.7137 7.16797 43.267 7.16797 42.9369 7.36328L7.10764 28.1836C6.75808 28.3789 6.54447 28.7695 6.54447 29.1797V70.8008C6.54447 71.1914 6.75808 71.582 7.10764 71.7578L16.934 77.4609C22.2744 80.1367 25.5369 76.9922 25.5369 73.8086V32.7148C25.5369 32.1289 26.003 31.6797 26.5855 31.6797H31.1297C31.6929 31.6797 32.1784 32.1289 32.1784 32.7148V73.8281C32.1784 80.9766 28.2945 85.0781 21.5559 85.0781C19.478 85.0781 17.8467 85.0781 13.3025 82.8125L3.9034 77.3633C1.57304 76.0156 0.135986 73.4961 0.135986 70.7812V29.1602C0.135986 26.4648 1.57304 23.9258 3.9034 22.5781L39.7326 1.75781C42.0047 0.46875 45.0148 0.46875 47.2675 1.75781L83.1355 22.5977C85.4659 23.9453 86.903 26.4648 86.903 29.1797V70.8008C86.903 73.4961 85.4659 76.0156 83.1355 77.3828L47.2675 98.2031C46.1217 98.8672 44.8206 99.2188 43.5001 99.2188ZM72.4547 58.1836C72.4547 50.3906 67.2114 48.3203 56.2005 46.8555C45.0536 45.3711 43.9273 44.6094 43.9273 41.9922C43.9273 39.8242 44.8788 36.9336 53.1322 36.9336C60.4922 36.9336 63.211 38.5352 64.3373 43.5352C64.4344 44.0039 64.8617 44.3555 65.3471 44.3555H70.0079C70.2992 44.3555 70.571 44.2383 70.7652 44.0234C70.9594 43.8086 71.0565 43.5156 71.0371 43.2227C70.3186 34.6094 64.6286 30.6055 53.1322 30.6055C42.898 30.6055 36.8003 34.9414 36.8003 42.2266C36.8003 50.1172 42.8786 52.3047 52.6855 53.2812C64.4344 54.4336 65.3471 56.1719 65.3471 58.4961C65.3471 62.5195 62.1235 64.2383 54.5692 64.2383C45.073 64.2383 42.9951 61.8359 42.296 57.0898C42.2184 56.582 41.7911 56.2109 41.2668 56.2109H36.6255C36.0429 56.2109 35.5963 56.6797 35.5963 57.2461C35.5963 63.3203 38.8782 70.5664 54.5887 70.5664C65.9297 70.5469 72.4547 66.0352 72.4547 58.1836Z" fill="#689F63"/>
</svg>
