<svg width="103" height="100" viewBox="0 0 103 100" fill="none" xmlns="http://www.w3.org/2000/svg">
<path d="M18.2396 0H84.7604C94.8458 0 103 8.11966 103 18.1624V81.8376C103 91.8803 94.8458 100 84.7604 100H18.2396C8.15417 100 0 91.8803 0 81.8376V18.1624C0 8.11966 8.15417 0 18.2396 0Z" fill="#001E36"/>
<path d="M23.175 70.1281V26.1537C23.175 25.8546 23.3037 25.6837 23.6042 25.6837C24.3337 25.6837 25.0204 25.6837 26.0075 25.6409C27.0375 25.5982 28.1104 25.5982 29.2692 25.5555C30.4279 25.5127 31.6725 25.5127 33.0029 25.47C34.3333 25.4272 35.6208 25.4272 36.9083 25.4272C40.4275 25.4272 43.3458 25.8546 45.7492 26.752C47.895 27.4785 49.8692 28.6751 51.5 30.2563C52.8733 31.6238 53.9462 33.2905 54.6329 35.1281C55.2767 36.923 55.62 38.7606 55.62 40.6837C55.62 44.3589 54.7617 47.3931 53.045 49.7862C51.3283 52.1794 48.925 53.9743 46.1354 54.9999C43.2171 56.0683 39.9983 56.4529 36.4792 56.4529C35.4492 56.4529 34.7625 56.4529 34.3333 56.4102C33.9042 56.3674 33.3033 56.3674 32.4879 56.3674V70.0854C32.5308 70.3845 32.3162 70.6409 32.0158 70.6837C31.9729 70.6837 31.93 70.6837 31.8442 70.6837H23.69C23.3467 70.6837 23.175 70.5127 23.175 70.1281ZM32.5308 33.9315V48.2905C33.1317 48.3332 33.6896 48.376 34.2046 48.376H36.4792C38.1529 48.376 39.8267 48.1196 41.4146 47.6067C42.7879 47.2221 43.9896 46.4102 44.9337 45.3418C45.835 44.2734 46.2642 42.8204 46.2642 40.9401C46.3071 39.6153 45.9637 38.2905 45.2771 37.1366C44.5475 36.0255 43.5175 35.1708 42.2729 34.7007C40.685 34.0597 38.9683 33.8033 37.2087 33.846C36.0929 33.846 35.1058 33.8461 34.2904 33.8888C33.4321 33.8461 32.8312 33.8888 32.5308 33.9315Z" fill="#31A8FF"/>
<path d="M82.4 45.6838C81.1125 45 79.7392 44.5299 78.28 44.2308C76.6921 43.8889 75.1042 43.6752 73.4733 43.6752C72.615 43.6325 71.7137 43.7607 70.8983 43.9744C70.3404 44.1026 69.8683 44.4017 69.5679 44.8291C69.3533 45.1709 69.2246 45.5983 69.2246 45.9829C69.2246 46.3675 69.3962 46.7521 69.6537 47.094C70.04 47.5641 70.555 47.9487 71.1129 48.2479C72.1 48.7607 73.13 49.2308 74.16 49.6581C76.4775 50.4273 78.7092 51.4957 80.7692 52.7778C82.1854 53.6752 83.3442 54.8718 84.1596 56.3248C84.8462 57.6923 85.1896 59.188 85.1467 60.7265C85.1896 62.735 84.5887 64.7436 83.4729 66.4102C82.2712 68.1197 80.5975 69.4444 78.6662 70.2137C76.5633 71.1111 73.9883 71.5812 70.8983 71.5812C68.9242 71.5812 66.9929 71.4103 65.0617 71.0256C63.5596 70.7692 62.0575 70.2991 60.6842 69.6581C60.3837 69.4872 60.1692 69.188 60.2121 68.8462V61.4102C60.2121 61.282 60.255 61.1111 60.3837 61.0256C60.5125 60.9402 60.6412 60.9829 60.77 61.0684C62.4437 62.0513 64.2033 62.735 66.0917 63.1624C67.7225 63.5897 69.4392 63.8034 71.1558 63.8034C72.7867 63.8034 73.9454 63.5897 74.7179 63.2051C75.4046 62.906 75.8767 62.1795 75.8767 61.4102C75.8767 60.812 75.5333 60.2564 74.8467 59.7008C74.16 59.1453 72.7437 58.5043 70.6408 57.6923C68.4521 56.9231 66.435 55.8974 64.5467 54.6154C63.2162 53.6752 62.1004 52.4359 61.285 50.9829C60.5983 49.6154 60.255 48.1197 60.2979 46.6239C60.2979 44.7863 60.8129 43.0342 61.7571 41.453C62.83 39.7436 64.4179 38.3761 66.2633 37.5214C68.2804 36.4957 70.8125 36.0256 73.8596 36.0256C75.6192 36.0256 77.4217 36.1538 79.1812 36.4102C80.4687 36.5812 81.7133 36.9231 82.8721 37.3932C83.0437 37.4359 83.2154 37.6068 83.3012 37.7778C83.3442 37.9487 83.3871 38.1197 83.3871 38.2906V45.2564C83.3871 45.4273 83.3012 45.5983 83.1725 45.6838C82.7862 45.7692 82.5717 45.7692 82.4 45.6838Z" fill="#31A8FF"/>
</svg>
