<svg width="82" height="100" viewBox="0 0 82 100" fill="none" xmlns="http://www.w3.org/2000/svg">
<path d="M10.3251 85.1933V55.9888L15.9364 87.5299L25.072 92.0731L30.9444 65.8533V94.5394L41.2542 99.6006V51.1866L25.5939 43.7876L20.635 66.8917L15.6327 39.0286L0.0586548 31.5872V80.0448L10.3251 85.1933Z" fill="#FBBD16"/>
<path d="M42.6895 51.1738L59.0466 42.6931V77.8247L81.6671 66.1439L81.7542 79.3827L42.7336 99.8472L42.6895 51.1738Z" fill="#452E7F"/>
<path d="M36.0947 0.123535L24.5283 10.3275C24.5283 10.3275 47.0956 21.9015 49.837 23.2694C52.5787 24.6369 56.4805 27.2673 52.2624 31.1608C48.0443 35.0539 43.4043 34.5278 40.2408 32.9495C37.0772 31.3712 13.6667 19.5867 13.6667 19.5867L1.75092 29.6874C1.75092 29.6874 24.7392 41.3666 28.5359 43.3658C32.3322 45.3653 46.4628 50.3102 59.8553 39.8936C73.2478 29.4769 71.3501 25.689 71.3501 24.9525C71.3501 24.216 71.0337 20.3229 68.7138 17.9028C66.3934 15.4828 59.6448 12.0106 56.7976 10.5375C53.9504 9.06446 36.0947 0.123535 36.0947 0.123535Z" fill="#962444"/>
<path d="M81.2691 59.3928C81.2691 61.1034 79.9235 62.4456 78.1723 62.4456C76.4394 62.4456 75.0574 61.103 75.0574 59.3928C75.0574 57.7188 76.4394 56.3762 78.1723 56.3762C79.9239 56.3766 81.2691 57.7188 81.2691 59.3928ZM75.8316 59.3928C75.8316 60.7353 76.8271 61.8025 78.191 61.8025C79.5182 61.8025 80.4953 60.7353 80.4953 59.4111C80.4953 58.0681 79.5182 56.9831 78.1723 56.9831C76.8271 56.9834 75.8316 58.0685 75.8316 59.3928ZM77.6933 60.9745H76.9927V57.9583C77.2696 57.9025 77.6565 57.8661 78.1542 57.8661C78.7252 57.8661 78.9837 57.9583 79.2045 58.0869C79.3706 58.2154 79.4994 58.4546 79.4994 58.7488C79.4994 59.0794 79.2417 59.3373 78.8728 59.4478V59.4846C79.1681 59.5952 79.3338 59.8152 79.4258 60.2203C79.5178 60.6803 79.5734 60.8643 79.6467 60.9745H78.8913C78.7988 60.8643 78.7436 60.588 78.6512 60.2387C78.596 59.9077 78.4115 59.7604 78.0242 59.7604H77.6929L77.6933 60.9745ZM77.7117 59.2642H78.0434C78.4307 59.2642 78.744 59.1356 78.744 58.823C78.744 58.5472 78.5415 58.3631 78.0986 58.3631C77.9142 58.3631 77.7853 58.3815 77.7113 58.4003V59.2642H77.7117Z" fill="#6D6E71"/>
</svg>
