<svg width="101" height="100" viewBox="0 0 101 100" fill="none" xmlns="http://www.w3.org/2000/svg">
<path d="M97.9735 15.2501L53.0969 95.4985C52.1695 97.1555 49.7891 97.1649 48.8492 95.5173L3.08202 15.2595C2.05624 13.461 3.5914 11.2852 5.62968 11.6485L50.5547 19.6774C50.8414 19.7298 51.1352 19.7298 51.4219 19.6774L95.4063 11.661C97.436 11.2915 98.9805 13.4493 97.9735 15.2501Z" fill="url(#paint0_linear_874_2550)"/>
<path d="M71.9532 1.11726L38.7453 7.62351C38.4803 7.6753 38.2399 7.81366 38.0621 8.01686C37.8842 8.22006 37.7788 8.47659 37.7625 8.74616L35.718 43.2524C35.707 43.4416 35.7402 43.6308 35.815 43.805C35.8898 43.9792 36.0041 44.1335 36.1489 44.2559C36.2937 44.3782 36.4649 44.4652 36.6492 44.5099C36.8334 44.5546 37.0254 44.5558 37.2102 44.5134L46.4571 42.3766C46.6562 42.3309 46.8637 42.3358 47.0604 42.3911C47.2571 42.4464 47.4368 42.5501 47.583 42.6929C47.7292 42.8357 47.8372 43.0129 47.8971 43.2082C47.957 43.4036 47.9668 43.6108 47.9258 43.811L45.1782 57.2634C45.1362 57.4704 45.1486 57.6848 45.2144 57.8856C45.2801 58.0864 45.3968 58.2666 45.5531 58.4088C45.7094 58.5509 45.9 58.65 46.1061 58.6964C46.3122 58.7428 46.5268 58.7349 46.7289 58.6735L52.4383 56.9368C53.3235 56.668 54.175 57.4462 53.9891 58.3524L49.6219 79.4829C49.35 80.8048 51.1078 81.5251 51.8407 80.3923L52.3289 79.636L79.3914 25.6282C79.8461 24.7219 79.0625 23.6907 78.0711 23.8829L68.5516 25.7204C68.3468 25.7602 68.1351 25.7466 67.937 25.6811C67.7389 25.6155 67.561 25.5001 67.4203 25.346C67.2797 25.1918 67.181 25.0041 67.1338 24.8008C67.0866 24.5976 67.0925 24.3856 67.1508 24.1852L73.3618 2.65241C73.4201 2.45135 73.4258 2.23864 73.378 2.03478C73.3303 1.83092 73.2309 1.64279 73.0894 1.48853C72.9478 1.33426 72.7689 1.21906 72.5699 1.15403C72.3709 1.089 72.1585 1.07633 71.9532 1.11726Z" fill="url(#paint1_linear_874_2550)"/>
<defs>
<linearGradient id="paint0_linear_874_2550" x1="1.96343" y1="8.78102" x2="57.8179" y2="84.6359" gradientUnits="userSpaceOnUse">
<stop stop-color="#41D1FF"/>
<stop offset="1" stop-color="#BD34FE"/>
</linearGradient>
<linearGradient id="paint1_linear_874_2550" x1="47.9766" y1="2.88286" x2="58.0804" y2="72.194" gradientUnits="userSpaceOnUse">
<stop stop-color="#FFEA83"/>
<stop offset="0.083" stop-color="#FFDD35"/>
<stop offset="1" stop-color="#FFA800"/>
</linearGradient>
</defs>
</svg>
