<svg width="100" height="100" viewBox="0 0 100 100" fill="none" xmlns="http://www.w3.org/2000/svg">
<path fill-rule="evenodd" clip-rule="evenodd" d="M12.1015 0H87.6718C94.3764 0 99.7733 3.95806 99.7733 8.87484V90.3607C99.7733 95.2772 94.3759 99.2355 87.6718 99.2355H12.1015C5.39689 99.2355 0 95.2775 0 90.3607V8.87484C0 3.95833 5.39743 0 12.1015 0Z" fill="#BB4803"/>
<g filter="url(#filter0_f_874_2432)">
<path fill-rule="evenodd" clip-rule="evenodd" d="M15.5877 4.66211H83.7899C89.8407 4.66211 94.7116 8.23429 94.7116 12.6714V86.211C94.7116 90.6481 89.8405 94.2203 83.7899 94.2203H15.5877C9.53685 94.2203 4.66589 90.6481 4.66589 86.211V12.6714C4.66589 8.23424 9.53707 4.66211 15.5877 4.66211Z" fill="url(#paint0_radial_874_2432)"/>
</g>
<g opacity="0.449" filter="url(#filter1_f_874_2432)">
<path fill-rule="evenodd" clip-rule="evenodd" d="M9.69855 5.84764C9.69855 5.84764 86.5255 5.08699 88.2346 5.65748C89.9461 6.22795 84.4314 12.6933 77.9658 13.264C71.5019 13.8343 22.8202 13.0734 22.8202 13.0734L9.69908 5.84757L9.69855 5.84764Z" fill="white"/>
</g>
<path fill-rule="evenodd" clip-rule="evenodd" d="M51.3887 38.2473C51.3887 48.4213 42.656 56.669 31.8835 56.669C21.111 56.669 12.3784 48.4213 12.3784 38.2473C12.3784 28.0733 21.111 19.8257 31.8835 19.8257C42.656 19.8257 51.3887 28.0733 51.3887 38.2473Z" fill="white"/>
<path fill-rule="evenodd" clip-rule="evenodd" d="M51.5325 62.3139C51.5325 73.6758 42.688 82.8867 31.7776 82.8867C20.8672 82.8867 12.0227 73.6758 12.0227 62.3139C12.0227 50.952 20.8672 41.7412 31.7776 41.7412C42.688 41.7412 51.5325 50.952 51.5325 62.3139Z" fill="white"/>
<path fill-rule="evenodd" clip-rule="evenodd" d="M88.6441 39.323C88.6441 50.4623 79.791 59.4926 68.87 59.4926C57.949 59.4926 49.0959 50.4623 49.0959 39.323C49.0959 28.1836 57.949 19.1533 68.87 19.1533C79.791 19.1533 88.6441 28.1836 88.6441 39.323Z" fill="white"/>
<path fill-rule="evenodd" clip-rule="evenodd" d="M87.5525 63.1233C87.5525 74.4852 78.9487 83.696 68.3354 83.696C57.7221 83.696 49.1183 74.4852 49.1183 63.1233C49.1183 51.7614 57.7221 42.5505 68.3354 42.5505C78.9487 42.5505 87.5525 51.7614 87.5525 63.1233Z" fill="white"/>
<path opacity="0.99" d="M30.3986 39.5251H70.9024V63.4853H30.3986V39.5251Z" fill="white"/>
<path d="M69.1458 32.3596C67.5601 32.3861 66.0496 33.0403 64.9455 34.1787C63.8414 35.3171 63.2338 36.8469 63.2559 38.4327C63.2559 43.1045 62.5838 44.0873 62.0911 44.4893C61.5984 44.8914 58.969 45.8204 53.1726 45.8204C47.149 45.8204 41.5338 45.1621 35.785 47.4178C32.9105 48.5456 30.0458 50.8017 28.3643 53.8737C26.6823 56.9457 26.0681 60.483 26.0681 64.5727C26.0575 65.366 26.2046 66.1536 26.5009 66.8896C26.7972 67.6256 27.2367 68.2955 27.794 68.8602C28.3513 69.425 29.0152 69.8734 29.7472 70.1795C30.4792 70.4855 31.2647 70.6431 32.0581 70.6431C32.8516 70.6431 33.6371 70.4855 34.3691 70.1795C35.1011 69.8734 35.765 69.425 36.3223 68.8602C36.8795 68.2955 37.3191 67.6256 37.6154 66.8896C37.9116 66.1536 38.0588 65.366 38.0482 64.5727C38.0482 61.7402 38.5235 60.2353 38.8635 59.6143C39.2035 58.9932 39.3072 58.9178 40.1613 58.5827C41.8696 57.9124 46.8041 57.8006 53.1733 57.8006C59.831 57.8006 65.2343 57.388 69.6627 53.774C74.0907 50.1599 75.2369 44.4545 75.2369 38.4331C75.248 37.631 75.098 36.8349 74.7957 36.0919C74.4933 35.3489 74.0449 34.6742 73.4769 34.1078C72.9089 33.5414 72.2329 33.0948 71.4891 32.7946C70.7453 32.4944 69.9487 32.3466 69.1467 32.36L69.1458 32.3596Z" fill="#FB7922"/>
<path d="M69.1618 50.6481C67.5761 50.6745 66.0656 51.3287 64.9615 52.4672C63.8574 53.6056 63.2498 55.1354 63.2718 56.7212V63.7596C63.2612 64.5529 63.4084 65.3405 63.7046 66.0765C64.0009 66.8125 64.4405 67.4823 64.9977 68.0471C65.555 68.6118 66.2189 69.0603 66.9509 69.3664C67.6829 69.6724 68.4684 69.83 69.2619 69.83C70.0553 69.83 70.8408 69.6724 71.5728 69.3664C72.3048 69.0603 72.9687 68.6118 73.526 68.0471C74.0833 67.4823 74.5228 66.8125 74.8191 66.0765C75.1154 65.3405 75.2625 64.5529 75.2519 63.7596V56.7212C75.2631 55.9191 75.113 55.123 74.8107 54.38C74.5084 53.637 74.0599 52.9623 73.4919 52.3959C72.924 51.8295 72.248 51.3829 71.5042 51.0827C70.7603 50.7824 69.9638 50.6346 69.1618 50.6481Z" fill="#FB7922"/>
<path opacity="0.99" d="M40.3457 38.7264C40.3457 40.5353 40.3331 45.6041 40.3331 45.6041C40.3331 45.6041 35.275 45.6199 33.2052 45.6199C29.2616 45.6199 26.0646 42.5337 26.0646 38.7269C26.0646 34.9197 29.2616 31.8333 33.2052 31.8333C37.1489 31.8333 40.3457 34.9191 40.3457 38.7264Z" fill="#FB7922"/>
<defs>
<filter id="filter0_f_874_2432" x="2.76209" y="2.7583" width="93.8534" height="93.3657" filterUnits="userSpaceOnUse" color-interpolation-filters="sRGB">
<feFlood flood-opacity="0" result="BackgroundImageFix"/>
<feBlend mode="normal" in="SourceGraphic" in2="BackgroundImageFix" result="shape"/>
<feGaussianBlur stdDeviation="0.951904" result="effect1_foregroundBlur_874_2432"/>
</filter>
<filter id="filter1_f_874_2432" x="8.7776" y="4.52436" width="80.6933" height="9.87266" filterUnits="userSpaceOnUse" color-interpolation-filters="sRGB">
<feFlood flood-opacity="0" result="BackgroundImageFix"/>
<feBlend mode="normal" in="SourceGraphic" in2="BackgroundImageFix" result="shape"/>
<feGaussianBlur stdDeviation="0.460475" result="effect1_foregroundBlur_874_2432"/>
</filter>
<radialGradient id="paint0_radial_874_2432" cx="0" cy="0" r="1" gradientUnits="userSpaceOnUse" gradientTransform="translate(50.6505 51.5053) scale(117.264 116.543)">
<stop stop-color="#F5660F"/>
<stop offset="0.5" stop-color="#F66E18" stop-opacity="0.610687"/>
<stop offset="1" stop-color="#F77721" stop-opacity="0"/>
</radialGradient>
</defs>
</svg>
