<svg width="88" height="100" viewBox="0 0 88 100" fill="none" xmlns="http://www.w3.org/2000/svg">
<path fill-rule="evenodd" clip-rule="evenodd" d="M81.3447 20.5019L49.844 1.82167C46.0842 -0.408004 41.4499 -0.408004 37.6901 1.82167L6.18937 20.5019C2.43067 22.7316 0.114075 26.8513 0.114075 31.3107V68.6711C0.114075 73.1294 2.43067 77.2513 6.19047 79.481L37.6912 98.1579C39.5711 99.2733 41.6677 99.8294 43.7676 99.8294C45.8664 99.8294 47.963 99.2733 49.8429 98.1579L81.3436 79.481C85.1034 77.2513 87.4211 73.1294 87.4211 68.6711V31.3107C87.4211 26.8513 85.1034 22.7316 81.3447 20.5019Z" fill="#FEFEFE"/>
<path fill-rule="evenodd" clip-rule="evenodd" d="M38.7922 96.2455L7.29145 77.5686C4.21035 75.7411 2.29635 72.3323 2.29635 68.6708V31.3114C2.29635 27.6499 4.21035 24.2411 7.29035 22.4147L38.7922 3.73452C40.3025 2.83891 42.0229 2.36529 43.7675 2.36529C45.511 2.36529 47.2314 2.83891 48.7428 3.73452L80.2435 22.4147C82.8395 23.9543 84.5907 26.6202 85.0835 29.6103C84.0385 27.3829 81.6823 26.7774 78.9367 28.3796L49.1355 46.7686C45.4197 48.9389 42.6796 51.3741 42.6774 55.8499V92.5345C42.6752 95.2147 43.7587 96.951 45.423 97.4543C44.8763 97.5488 44.3252 97.6147 43.7675 97.6147C42.0229 97.6147 40.3025 97.1411 38.7922 96.2455ZM81.3446 20.5016L49.8439 1.82243C47.964 0.707045 45.8652 0.149902 43.7675 0.149902C41.6687 0.149902 39.5699 0.707045 37.69 1.82243L6.18925 20.5016C2.43055 22.7312 0.113953 26.8521 0.113953 31.3114V68.6708C0.113953 73.129 2.43055 77.251 6.19035 79.4807L37.6911 98.1587C39.5721 99.273 41.6687 99.8301 43.7675 99.8301C45.8663 99.8301 47.9629 99.273 49.8428 98.1587L81.3446 79.4807C85.1044 77.251 87.421 73.129 87.421 68.6708V31.3114C87.421 26.8521 85.1044 22.7312 81.3446 20.5016Z" fill="#3E474A"/>
<path fill-rule="evenodd" clip-rule="evenodd" d="M73.0871 72.2827L65.243 76.9728C65.0351 77.0937 64.8822 77.23 64.8811 77.4794V79.53C64.8811 79.7805 65.0494 79.8849 65.2573 79.763L73.2224 74.9267C73.4303 74.8058 73.4622 74.574 73.4633 74.3245V72.5157C73.4633 72.2663 73.295 72.1619 73.0871 72.2827Z" fill="#47B353"/>
<path fill-rule="evenodd" clip-rule="evenodd" d="M56.3838 55.0226C56.6379 54.8941 56.8469 55.0523 56.8502 55.3842L56.8766 58.0951C58.0129 57.6435 58.9996 57.5226 59.8939 57.7292C60.0875 57.7809 60.1733 58.0446 60.0941 58.3578L59.4968 60.76C59.4506 60.9413 59.3483 61.1248 59.2251 61.2391C59.1734 61.2897 59.1206 61.3292 59.0678 61.3556C58.9875 61.3962 58.9083 61.4094 58.8324 61.3941C58.4243 61.3017 57.4541 61.0897 55.9273 61.8622C54.3257 62.6721 53.7658 64.0622 53.7768 65.0941C53.79 66.3259 54.4225 66.6995 56.6071 66.7369C59.5177 66.7853 60.775 68.0556 60.8058 70.9842C60.8355 73.86 59.2988 76.9479 56.9481 78.8402L56.9998 81.5237C57.0031 81.8468 56.793 82.2171 56.5389 82.3457L54.9483 83.2611C54.6931 83.3897 54.4841 83.2314 54.4808 82.9083L54.4533 80.2688C53.0904 80.8347 51.7099 80.971 50.8277 80.6171C50.6616 80.5523 50.5901 80.3072 50.6561 80.0281L51.2325 77.6017C51.2787 77.4105 51.3799 77.2193 51.5174 77.0973C51.5658 77.0501 51.6164 77.0138 51.667 76.9886C51.7583 76.9424 51.8474 76.9325 51.9233 76.9611C52.8737 77.2809 54.0892 77.1314 55.2585 76.5402C56.7435 75.7897 57.7368 74.2765 57.7214 72.7732C57.7071 71.4094 56.9679 70.8424 55.1705 70.8292C52.8825 70.8358 50.7496 70.3853 50.7144 67.0204C50.6858 64.2501 52.1279 61.3677 54.4104 59.5446L54.3818 56.8358C54.3785 56.5028 54.582 56.1369 54.8438 56.005L56.3838 55.0226Z" fill="#FEFEFE"/>
</svg>
