<svg width="73" height="100" viewBox="0 0 73 100" fill="none" xmlns="http://www.w3.org/2000/svg">
<path d="M0.625488 80.411L12.734 3.46925C12.882 2.52562 13.621 1.78176 14.5692 1.62181C15.5173 1.46185 16.4621 1.92204 16.9155 2.76421L29.4378 25.9577L34.4292 16.5204C34.8157 15.7907 35.5778 15.3338 36.4081 15.3338C37.2385 15.3338 38.0005 15.7907 38.3871 16.5204L72.1803 80.4109L0.625488 80.411Z" fill="#FFA000"/>
<path d="M42.4574 50.4394L29.4321 25.9468L0.625549 80.4111L42.4574 50.4394Z" fill="#F57C00"/>
<path d="M72.1808 80.411L62.9066 23.4208C62.7665 22.6024 62.1783 21.9301 61.3818 21.6766C60.5853 21.4232 59.7136 21.6342 59.122 22.2209L0.625549 80.4102L32.9931 98.4354C35.0257 99.5624 37.5011 99.5624 39.5337 98.4354L72.1808 80.4102V80.411Z" fill="#FFCA28"/>
<path d="M62.9065 23.4208C62.7664 22.6024 62.1782 21.9301 61.3817 21.6766C60.5852 21.4232 59.7135 21.6341 59.1219 22.2209L47.5117 33.7796L38.3821 16.52C37.9955 15.7903 37.2334 15.3333 36.4031 15.3333C35.5727 15.3333 34.8107 15.7903 34.4241 16.52L29.4327 25.9573L16.9098 2.76417C16.4557 1.92177 15.5098 1.46233 14.5605 1.62348C13.6112 1.78462 12.8747 2.53035 12.7283 3.47472L0.625456 80.411H0.586426L0.625456 80.4554L0.944077 80.6108L59.1051 22.7879C59.6963 22.1979 60.5702 21.9859 61.3688 22.2386C62.1674 22.4912 62.7566 23.1662 62.8953 23.9869L72.0913 80.4664L72.1808 80.4108L62.9065 23.4208ZM0.731663 80.3055L12.734 4.01883C12.8802 3.07446 13.6185 2.32873 14.5669 2.16759C15.5153 2.00644 16.4614 2.46573 16.9162 3.30828L29.4378 26.5018L34.4291 17.0644C34.8157 16.3347 35.5777 15.8778 36.4081 15.8778C37.2385 15.8778 38.0005 16.3347 38.3871 17.0644L47.3315 33.9572L0.731663 80.3055Z" fill="white" fill-opacity="0.2"/>
<path opacity="0.2" d="M39.5337 97.8924C37.5011 99.0193 35.0257 99.0193 32.9931 97.8924L0.703773 79.9172L0.625488 80.4114L32.9931 98.4311C35.0256 99.5581 37.501 99.5581 39.5336 98.4311L72.1807 80.4114L72.0969 79.9006L39.5337 97.8924Z" fill="#A52714"/>
<path d="M62.8138 23.4327C62.6742 22.6146 62.088 21.942 61.2944 21.6901C60.5007 21.4382 59.632 21.6476 59.0425 22.2342L47.4722 33.7871L38.3752 16.5354C37.9899 15.806 37.2305 15.3493 36.4032 15.3493C35.5758 15.3493 34.8165 15.806 34.4312 16.5354L29.4566 25.9687L16.9782 2.78516C16.5256 1.94313 15.583 1.48377 14.6378 1.64499C13.6927 1.80621 12.957 2.55135 12.8113 3.49549L0.75061 80.398L33.0051 98.4098C35.0305 99.5363 37.4973 99.5363 39.5228 98.4098L72.0557 80.398L62.8138 23.4326V23.4327Z" fill="url(#paint0_linear_874_2526)"/>
<defs>
<linearGradient id="paint0_linear_874_2526" x1="-248.104" y1="1663.47" x2="8622.98" y2="6375.66" gradientUnits="userSpaceOnUse">
<stop stop-color="white" stop-opacity="0.1"/>
<stop offset="0.14" stop-color="white" stop-opacity="0.08"/>
<stop offset="0.61" stop-color="white" stop-opacity="0.02"/>
<stop offset="1" stop-color="white" stop-opacity="0"/>
</linearGradient>
</defs>
</svg>
