<svg width="706" height="779" viewBox="0 0 706 779" fill="none" xmlns="http://www.w3.org/2000/svg">
<circle cx="431.501" cy="336.499" r="336.5" fill="#772CA9"/>
<circle cx="627" cy="577" r="202" fill="#2F80E4"/>
<ellipse cx="46.4813" cy="46.4814" rx="46.4813" ry="46.4814" transform="matrix(0.184344 0.982862 0.982862 -0.184344 23.005 94.8649)" fill="#772CA9"/>
<ellipse cx="5.33392" cy="5.33393" rx="5.33392" ry="5.33393" transform="matrix(0.184344 0.982862 0.982862 -0.184344 131.205 133.061)" fill="#2F80E4"/>
<ellipse cx="5.33392" cy="5.33393" rx="5.33392" ry="5.33393" transform="matrix(0.184344 0.982862 0.982862 -0.184344 112.943 35.6997)" fill="#772CA9"/>
<ellipse cx="2.3662" cy="2.36621" rx="2.3662" ry="2.36621" transform="matrix(0.184344 0.982862 0.982862 -0.184344 57.2506 81.125)" fill="#772CA9"/>
<ellipse cx="8.38188" cy="8.38189" rx="8.38188" ry="8.38189" transform="matrix(0.0979805 0.995188 0.995188 -0.0979808 11.5162 104.149)" fill="#2F80E4"/>
<ellipse cx="14.6793" cy="14.6793" rx="14.6793" ry="14.6793" transform="matrix(0.0979805 0.995188 0.995188 -0.0979808 25.6698 56.6647)" fill="#772CA9"/>
<ellipse cx="20.5737" cy="20.5737" rx="20.5737" ry="20.5737" transform="matrix(0.184344 0.982862 0.982862 -0.184344 113.694 72.7722)" fill="#772CA9"/>
<ellipse cx="12.1918" cy="12.1918" rx="12.1918" ry="12.1918" transform="matrix(0.184344 0.982862 0.982862 -0.184344 135.692 32.9835)" fill="#2F80E4"/>
<ellipse cx="3.04796" cy="3.04796" rx="3.04796" ry="3.04796" transform="matrix(0.184344 0.982862 0.982862 -0.184344 128.297 26.6179)" fill="#772CA9"/>
<ellipse cx="23.5322" cy="23.5323" rx="23.5322" ry="23.5323" transform="matrix(0.184344 0.982862 0.982862 -0.184344 59.3973 40.7998)" fill="#2F80E4"/>
</svg>
