<svg width="829" height="779" viewBox="0 0 829 779" fill="none" xmlns="http://www.w3.org/2000/svg">
<circle cx="431.5" cy="336.5" r="336.5" fill="#772CA9"/>
<circle cx="626.999" cy="577.001" r="202" fill="#2F80E4"/>
<ellipse cx="46.4813" cy="46.4814" rx="46.4813" ry="46.4814" transform="matrix(0.184344 0.982862 0.982862 -0.184344 23.0037 94.8656)" fill="#772CA9"/>
<ellipse cx="5.33392" cy="5.33393" rx="5.33392" ry="5.33393" transform="matrix(0.184344 0.982862 0.982862 -0.184344 131.203 133.061)" fill="#2F80E4"/>
<ellipse cx="5.33392" cy="5.33393" rx="5.33392" ry="5.33393" transform="matrix(0.184344 0.982862 0.982862 -0.184344 112.942 35.7004)" fill="#772CA9"/>
<ellipse cx="2.3662" cy="2.36621" rx="2.3662" ry="2.36621" transform="matrix(0.184344 0.982862 0.982862 -0.184344 57.2493 81.1257)" fill="#772CA9"/>
<ellipse cx="8.38188" cy="8.38189" rx="8.38188" ry="8.38189" transform="matrix(0.0979805 0.995188 0.995188 -0.0979808 11.5149 104.15)" fill="#2F80E4"/>
<ellipse cx="14.6793" cy="14.6793" rx="14.6793" ry="14.6793" transform="matrix(0.0979805 0.995188 0.995188 -0.0979808 25.6685 56.6654)" fill="#772CA9"/>
<ellipse cx="20.5737" cy="20.5737" rx="20.5737" ry="20.5737" transform="matrix(0.184344 0.982862 0.982862 -0.184344 113.693 72.7729)" fill="#772CA9"/>
<ellipse cx="12.1918" cy="12.1918" rx="12.1918" ry="12.1918" transform="matrix(0.184344 0.982862 0.982862 -0.184344 135.691 32.9843)" fill="#2F80E4"/>
<ellipse cx="3.04796" cy="3.04796" rx="3.04796" ry="3.04796" transform="matrix(0.184344 0.982862 0.982862 -0.184344 128.295 26.6187)" fill="#772CA9"/>
<ellipse cx="23.5322" cy="23.5323" rx="23.5322" ry="23.5323" transform="matrix(0.184344 0.982862 0.982862 -0.184344 59.396 40.8005)" fill="#2F80E4"/>
</svg>
