<svg width="91" height="100" viewBox="0 0 91 100" fill="none" xmlns="http://www.w3.org/2000/svg">
<path fill-rule="evenodd" clip-rule="evenodd" d="M42.9017 0.681089C44.5099 -0.226053 46.4899 -0.226053 48.0957 0.681089C56.0417 5.16442 79.9532 18.6596 87.9016 23.143C89.5098 24.0477 90.4998 25.7239 90.4998 27.5382C90.4998 36.5049 90.4998 63.493 90.4998 72.4596C90.4998 74.2739 89.5098 75.9501 87.9016 76.8572C79.9556 81.3406 56.0441 94.8358 48.0957 99.3191C46.4875 100.226 44.5075 100.226 42.9017 99.3191C34.9557 94.8358 11.0442 81.3406 3.09578 76.8572C1.49 75.9501 0.5 74.2763 0.5 72.462C0.5 63.4953 0.5 36.5073 0.5 27.5406C0.5 25.7263 1.49 24.0501 3.09815 23.143C11.0418 18.6596 34.9581 5.16442 42.9017 0.681089Z" fill="#004482"/>
<path fill-rule="evenodd" clip-rule="evenodd" d="M1.22 74.772C0.59 73.9244 0.5 73.1197 0.5 72.0363C0.5 63.122 0.5 36.2887 0.5 27.3721C0.5 25.5673 1.48763 23.9007 3.09105 23.0007C11.0087 18.5435 34.8397 5.12686 42.7573 0.667337C44.3607 -0.235043 46.5325 -0.215996 48.1359 0.686384C56.0536 5.14352 79.804 18.4459 87.7216 22.903C88.3611 23.2649 88.849 23.7007 89.2848 24.2745L1.22 74.772Z" fill="#659AD2"/>
<path fill-rule="evenodd" clip-rule="evenodd" d="M45.4999 16.6672C63.8006 16.6672 78.6577 31.6029 78.6577 50.0005C78.6577 68.3982 63.8006 83.3339 45.4999 83.3339C27.1991 83.3339 12.342 68.3982 12.342 50.0005C12.342 31.6029 27.1991 16.6672 45.4999 16.6672ZM45.4999 33.3339C54.649 33.3339 62.0788 40.8006 62.0788 50.0005C62.0788 59.1982 54.649 66.6672 45.4999 66.6672C36.3507 66.6672 28.9209 59.1982 28.9209 50.0005C28.9209 40.8006 36.3483 33.3339 45.4999 33.3339Z" fill="white"/>
<path fill-rule="evenodd" clip-rule="evenodd" d="M89.2801 24.2983C90.5022 25.4483 90.4785 27.1817 90.4785 28.546C90.4785 37.5817 90.4027 63.2816 90.4998 72.3174C90.5093 73.2602 90.1991 74.2531 89.7348 75.0007L44.536 50.0007L89.2801 24.2983Z" fill="#00599C"/>
</svg>
