<svg width="120" height="70" viewBox="0 0 120 70" fill="none" xmlns="http://www.w3.org/2000/svg">
<path d="M120 68.1847C115.635 69.3005 112.935 68.2336 110.513 64.5768L93.2852 40.612L90.7949 37.2937L70.6763 64.6565C68.3777 67.9486 65.9666 69.3801 61.6763 68.2155L87.4388 33.4441L63.4538 2.03545C67.5785 1.22917 70.4288 1.63909 72.9596 5.35377L90.8282 29.6173L108.828 5.48589C111.134 2.19381 113.614 0.943214 117.754 2.1558L108.454 14.5531L95.8538 31.0488C94.3535 32.9338 94.5596 34.2242 95.9402 36.044L120 68.1847ZM0.0306001 32.8632L2.13751 22.4413C7.87502 1.81646 31.3876 -6.75399 47.6029 5.98993C57.079 13.4853 59.4343 24.0882 58.9654 35.9652H5.55031C4.74841 57.3439 20.052 70.2461 39.5623 63.6638C46.4059 61.3526 50.437 55.9639 52.4548 49.2232C53.479 45.8451 55.1728 45.3166 58.3309 46.2822C56.719 54.7133 53.0812 61.7562 45.3934 66.1641C33.9076 72.7618 17.5113 70.628 8.88752 61.4585C3.74941 56.1376 1.6272 49.3969 0.675002 42.1874C0.524701 40.9957 0.225001 39.8609 0 38.7189C0.0198001 36.7679 0.0306001 34.8178 0.0306001 32.8668V32.8632ZM5.64751 31.4307H53.9173C53.6023 15.972 44.029 4.9918 30.9448 4.8986C16.5825 4.78548 6.26942 15.5042 5.64661 31.4307H5.64751Z" fill="black"/>
</svg>
