<svg width="66" height="100" viewBox="0 0 66 100" fill="none" xmlns="http://www.w3.org/2000/svg">
<path d="M16.5033 100C25.6095 100 33 92.5334 33 83.3334V66.6667H16.5033C7.39713 66.6667 0.00660706 74.1334 0.00660706 83.3334C0.00660706 92.5334 7.39713 100 16.5033 100Z" fill="#0ACF83"/>
<path d="M0.00660706 49.9999C0.00660706 40.7999 7.39713 33.3333 16.5033 33.3333H33V66.6666H16.5033C7.39713 66.6666 0.00660706 59.1999 0.00660706 49.9999Z" fill="#A259FF"/>
<path d="M0.00660706 16.6667C0.00660706 7.46667 7.39713 0 16.5033 0H33V33.3333H16.5033C7.39713 33.3333 0.00660706 25.8667 0.00660706 16.6667Z" fill="#F24E1E"/>
<path d="M33 0H49.4967C58.6029 0 65.9934 7.46667 65.9934 16.6667C65.9934 25.8667 58.6029 33.3333 49.4967 33.3333H33V0Z" fill="#FF7262"/>
<path d="M65.9934 49.9999C65.9934 59.1999 58.6029 66.6666 49.4967 66.6666C40.3905 66.6666 33 59.1999 33 49.9999C33 40.7999 40.3905 33.3333 49.4967 33.3333C58.6029 33.3333 65.9934 40.7999 65.9934 49.9999Z" fill="#1ABCFE"/>
</svg>
