<svg width="77" height="100" viewBox="0 0 77 100" fill="none" xmlns="http://www.w3.org/2000/svg">
<path fill-rule="evenodd" clip-rule="evenodd" d="M26.4117 77.3237C26.4117 77.3237 22.593 79.5383 29.1325 80.2855C37.0561 81.1869 41.1051 81.0571 49.8343 79.4131C49.8343 79.4131 52.1339 80.8464 55.3399 82.0878C35.7651 90.4436 11.038 81.6036 26.4117 77.3237Z" fill="#0074BD"/>
<path fill-rule="evenodd" clip-rule="evenodd" d="M24.0186 66.418C24.0186 66.418 19.7349 69.5779 26.2793 70.2518C34.7441 71.1225 41.4265 71.1939 52.9963 68.9754C52.9963 68.9754 54.5928 70.5912 57.107 71.4742C33.4436 78.3706 7.08729 72.0168 24.0186 66.418Z" fill="#0074BD"/>
<path fill-rule="evenodd" clip-rule="evenodd" d="M44.1821 47.9158C49.0079 53.4505 42.9167 58.427 42.9167 58.427C42.9167 58.427 55.1629 52.1294 49.54 44.2393C44.2865 36.8848 40.2588 33.2315 62.064 20.6321C62.064 20.6321 27.8352 29.1475 44.1821 47.9158Z" fill="#EA2D2E"/>
<path fill-rule="evenodd" clip-rule="evenodd" d="M70.071 85.3919C70.071 85.3919 72.898 87.7137 66.9575 89.5093C55.6615 92.9183 19.9333 93.9466 10.0097 89.6458C6.44491 88.0987 13.133 85.9545 15.2373 85.5016C17.4315 85.0287 18.6842 85.1151 18.6842 85.1151C14.7169 82.3316 -6.95851 90.5819 7.67557 92.9481C47.5832 99.3931 80.4213 90.0451 70.071 85.3919Z" fill="#0074BD"/>
<path fill-rule="evenodd" clip-rule="evenodd" d="M28.2495 55.1169C28.2495 55.1169 10.0782 59.4184 21.8148 60.9817C26.772 61.6426 36.648 61.4905 45.854 60.721C53.3755 60.092 60.9238 58.7469 60.9238 58.7469C60.9238 58.7469 58.2736 59.8796 56.3549 61.1842C37.8985 66.0207 2.25105 63.7683 12.515 58.8236C21.1913 54.6415 28.2495 55.1169 28.2495 55.1169Z" fill="#0074BD"/>
<path fill-rule="evenodd" clip-rule="evenodd" d="M60.8487 73.2703C79.6089 63.56 70.9339 54.2274 64.8793 55.4844C63.3987 55.7923 62.7345 56.059 62.7345 56.059C62.7345 56.059 63.2861 55.198 64.3365 54.8275C76.3146 50.6338 85.5244 67.2006 60.4738 73.7618C60.4738 73.7618 60.7617 73.5017 60.8487 73.2703Z" fill="#0074BD"/>
<path fill-rule="evenodd" clip-rule="evenodd" d="M49.5402 0.283203C49.5402 0.283203 59.9276 10.6385 39.685 26.5576C23.4518 39.3325 35.9838 46.6136 39.6793 54.9369C30.2027 46.4188 23.2519 38.9193 27.9142 31.9405C34.7606 21.6978 53.7303 16.7301 49.5402 0.283203Z" fill="#EA2D2E"/>
<path fill-rule="evenodd" clip-rule="evenodd" d="M30.0939 99.5916C48.0975 100.738 75.7517 98.9534 76.4062 90.4648C76.4062 90.4648 75.1481 93.6827 61.5259 96.236C46.158 99.1187 27.1991 98.7831 15.9589 96.9339C15.9589 96.9339 18.2616 98.8329 30.0939 99.5916Z" fill="#0074BD"/>
</svg>
