<svg width="158" height="86" viewBox="0 0 158 86" fill="none" xmlns="http://www.w3.org/2000/svg">
<mask id="mask0_874_2589" style="mask-type:luminance" maskUnits="userSpaceOnUse" x="2" y="2" width="154" height="82">
<path d="M2.22162 43C2.22162 65.2481 36.5972 83.2842 78.9999 83.2842C121.403 83.2842 155.778 65.2481 155.778 43C155.778 20.7522 121.403 2.7159 78.9999 2.7159C36.5972 2.7159 2.22162 20.7522 2.22162 43Z" fill="white"/>
</mask>
<g mask="url(#mask0_874_2589)">
<path d="M2.22162 43C2.22162 65.2481 36.5972 83.2842 78.9999 83.2842C121.403 83.2842 155.778 65.2481 155.778 43C155.778 20.7522 121.403 2.7159 78.9999 2.7159C36.5972 2.7159 2.22162 20.7522 2.22162 43Z" fill="url(#paint0_radial_874_2589)"/>
</g>
<mask id="mask1_874_2589" style="mask-type:luminance" maskUnits="userSpaceOnUse" x="-1" y="-2" width="160" height="90">
<path d="M-0.977478 -1.87141H158.977V87.8711H-0.977478V-1.87141Z" fill="white"/>
</mask>
<g mask="url(#mask1_874_2589)">
<path d="M78.9999 80.293C119.746 80.293 152.779 63.5961 152.779 42.9997C152.779 22.4035 119.746 5.7064 78.9999 5.7064C38.2533 5.7064 5.22076 22.4035 5.22076 42.9997C5.22076 63.5961 38.2533 80.293 78.9999 80.293Z" fill="#777BB3"/>
</g>
<mask id="mask2_874_2589" style="mask-type:luminance" maskUnits="userSpaceOnUse" x="-1" y="-2" width="160" height="90">
<path d="M-0.977478 -1.87141H158.977V87.8711H-0.977478V-1.87141Z" fill="white"/>
</mask>
<g mask="url(#mask2_874_2589)">
<path d="M43.936 47.6236C47.2864 47.6236 49.7877 47.0073 51.3703 45.7924C52.9359 44.59 54.0173 42.5068 54.5841 39.601C55.1125 36.8849 54.9112 34.9884 53.9859 33.965C53.0398 32.9196 50.9943 32.3895 47.9062 32.3895H42.5519L39.5836 47.6236H43.936ZM26.4234 66.3892C26.1749 66.3892 25.9389 66.2784 25.7809 66.0867C25.6226 65.8953 25.5584 65.6432 25.6059 65.3998L33.4726 25.0292C33.5486 24.6389 33.8916 24.357 34.2904 24.357H51.245C56.5735 24.357 60.5396 25.8001 63.0325 28.6466C65.5388 31.5081 66.3127 35.508 65.3327 40.535C64.9339 42.583 64.248 44.4851 63.2941 46.188C62.3391 47.8928 61.077 49.4702 59.5421 50.8773C57.7049 52.5924 55.6255 53.836 53.3672 54.5678C51.1448 55.2899 48.2906 55.6561 44.8841 55.6561H38.0188L36.0582 65.7166C35.9821 66.1072 35.6394 66.3892 35.2407 66.3892H26.4234Z" fill="black"/>
<path d="M43.2388 33.2206H47.9063C51.6333 33.2206 52.928 34.0363 53.3678 34.5224C54.0976 35.3295 54.2354 37.0313 53.7663 39.4435C53.2393 42.1441 52.2623 44.0589 50.8622 45.1342C49.4287 46.2349 47.0982 46.7927 43.9361 46.7927H40.5942L43.2388 33.2206ZM51.2451 23.5262H34.2902C33.4926 23.5262 32.807 24.0901 32.6548 24.8709L24.7882 65.2414C24.6932 65.7287 24.8215 66.2325 25.1378 66.6156C25.4544 66.9986 25.9259 67.2202 26.4235 67.2202H35.2405C36.0383 67.2202 36.7239 66.6563 36.8761 65.8755L38.7056 56.4871H44.8841C48.3781 56.4871 51.3195 56.1071 53.6258 55.3579C55.9977 54.5892 58.1798 53.286 60.1112 51.4845C61.7085 50.0187 63.0243 48.3735 64.0212 46.5939C65.0184 44.8137 65.7349 42.8285 66.1506 40.6936C67.1823 35.4021 66.3442 31.1648 63.6599 28.1003C61.0018 25.0651 56.8246 23.5262 51.2451 23.5262ZM38.5729 48.4546H43.9361C47.4909 48.4546 50.1388 47.7868 51.8785 46.4509C53.6186 45.1148 54.7922 42.8848 55.402 39.7599C55.9854 36.7596 55.7197 34.6423 54.6047 33.4089C53.4884 32.1755 51.2559 31.5587 47.9063 31.5587H41.8653L38.5729 48.4546ZM51.2451 25.1881C56.3456 25.1881 60.0665 26.5231 62.4053 29.1935C64.7438 31.8639 65.448 35.5913 64.515 40.3767C64.1309 42.348 63.4814 44.1503 62.5669 45.7831C61.6513 47.417 60.4558 48.9111 58.9785 50.2658C57.2179 51.9092 55.262 53.0802 53.1099 53.7777C50.9577 54.4771 48.2165 54.8252 44.8841 54.8252H37.3318L35.2405 65.5583H26.4235L34.2902 25.1881H51.2451Z" fill="white"/>
<path d="M85.5488 55.6562C85.3 55.6562 85.0643 55.5455 84.9062 55.3538C84.7477 55.1624 84.6835 54.9106 84.731 54.6669L88.2109 36.8045C88.5419 35.1058 88.4602 33.8865 87.9812 33.3713C87.688 33.0564 86.8071 32.5282 84.2026 32.5282H77.8982L73.5231 54.9837C73.447 55.3743 73.104 55.6562 72.7052 55.6562H63.9577C63.7089 55.6562 63.4731 55.5455 63.3148 55.3538C63.1566 55.1624 63.0924 54.9103 63.1399 54.6669L71.0066 14.2963C71.0827 13.906 71.4256 13.6241 71.8244 13.6241H80.5719C80.8207 13.6241 81.0565 13.7349 81.2148 13.9263C81.3731 14.1179 81.4372 14.3697 81.3897 14.6135L79.4914 24.3572H86.2734C91.44 24.3572 94.9434 25.2657 96.9839 27.1347C99.0639 29.0415 99.7129 32.0903 98.9131 36.1974L95.253 54.9837C95.177 55.3743 94.8343 55.6562 94.4352 55.6562H85.5488Z" fill="black"/>
<path d="M80.572 12.7933H71.8245C71.0266 12.7933 70.341 13.3572 70.1888 14.138L62.3221 54.5085C62.2272 54.9958 62.3555 55.4996 62.6721 55.8827C62.9886 56.2657 63.4602 56.4873 63.9578 56.4873H72.7053C73.5029 56.4873 74.1888 55.9234 74.341 55.1426L78.585 33.3592H84.2026C86.8027 33.3592 87.3484 33.9132 87.3703 33.937C87.5281 34.1063 87.7355 34.8901 87.3931 36.6462L83.9133 54.5085C83.8183 54.9958 83.9466 55.4996 84.2632 55.8827C84.5797 56.2657 85.0513 56.4873 85.5489 56.4873H94.4353C95.2328 56.4873 95.9188 55.9234 96.0709 55.1426L99.7307 36.3562C100.59 31.9463 99.8549 28.6383 97.5477 26.5233C95.3461 24.5066 91.6583 23.5263 86.2734 23.5263H80.5017L82.2076 14.7723C82.3023 14.2851 82.1743 13.781 81.8577 13.3982C81.5412 13.0151 81.0696 12.7933 80.572 12.7933ZM80.572 14.4552L78.4806 25.1882H86.2734C91.1768 25.1882 94.5589 26.0419 96.4203 27.747C98.2817 29.4532 98.8393 32.2178 98.0954 36.0393L94.4353 54.8254H85.5489L89.0288 36.9633C89.4248 34.9314 89.2792 33.5454 88.5917 32.8064C87.9038 32.0674 86.4406 31.6973 84.2026 31.6973H77.2113L72.7053 54.8254H63.9578L71.8245 14.4552H80.572Z" fill="white"/>
<path d="M112.754 47.6236C116.105 47.6236 118.606 47.0073 120.188 45.7924C121.754 44.5903 122.835 42.5071 123.403 39.601C123.931 36.8849 123.73 34.9884 122.804 33.965C121.858 32.9196 119.812 32.3895 116.724 32.3895H111.37L108.402 47.6236H112.754ZM95.2419 66.3892C94.9933 66.3892 94.7573 66.2784 94.5993 66.0867C94.441 65.8953 94.3766 65.6432 94.424 65.3998L102.291 25.0292C102.367 24.6389 102.71 24.357 103.109 24.357H120.063C125.392 24.357 129.358 25.8001 131.851 28.6466C134.357 31.5079 135.131 35.5078 134.151 40.535C133.752 42.583 133.066 44.4851 132.112 46.188C131.157 47.8928 129.895 49.4702 128.36 50.8773C126.523 52.5924 124.444 53.836 122.185 54.5678C119.963 55.2899 117.109 55.6561 113.702 55.6561H106.837L104.877 65.7166C104.801 66.1072 104.458 66.3892 104.059 66.3892H95.2419Z" fill="black"/>
<path d="M112.057 33.2206H116.725C120.452 33.2206 121.746 34.0363 122.186 34.5224C122.916 35.3295 123.054 37.0313 122.585 39.4433C122.057 42.1441 121.08 44.0589 119.68 45.1342C118.247 46.2349 115.916 46.7927 112.754 46.7927H109.413L112.057 33.2206ZM120.063 23.5262H103.109C102.311 23.5262 101.625 24.0901 101.473 24.8709L93.6066 65.2414C93.5117 65.7287 93.64 66.2325 93.9563 66.6156C94.2728 66.9986 94.7444 67.2202 95.242 67.2202H104.059C104.857 67.2202 105.542 66.6563 105.695 65.8755L107.524 56.4871H113.702C117.196 56.4871 120.138 56.1071 122.444 55.3579C124.816 54.5892 126.999 53.2858 128.93 51.484C130.527 50.0185 131.842 48.3735 132.839 46.5939C133.837 44.8137 134.553 42.8285 134.969 40.6936C136 35.4018 135.162 31.1645 132.478 28.1C129.82 25.0651 125.643 23.5262 120.063 23.5262ZM107.391 48.4546H112.754C116.309 48.4546 118.957 47.7868 120.697 46.4509C122.437 45.1148 123.61 42.8848 124.22 39.7599C124.804 36.7596 124.538 34.6423 123.423 33.4089C122.307 32.1755 120.074 31.5587 116.725 31.5587H110.683L107.391 48.4546ZM120.063 25.1881C125.164 25.1881 128.885 26.5231 131.223 29.1935C133.562 31.8639 134.266 35.5913 133.333 40.3767C132.949 42.348 132.3 44.1503 131.385 45.7831C130.47 47.417 129.274 48.9111 127.797 50.2658C126.036 51.9092 124.08 53.0802 121.928 53.7777C119.776 54.4771 117.035 54.8252 113.702 54.8252H106.15L104.059 65.5583H95.242L103.109 25.1881H120.063Z" fill="white"/>
</g>
<defs>
<radialGradient id="paint0_radial_874_2589" cx="0" cy="0" r="1" gradientUnits="userSpaceOnUse" gradientTransform="translate(48.3197 16.8786) scale(100.821 100.561)">
<stop stop-color="#AEB2D5"/>
<stop offset="0.3" stop-color="#AEB2D5"/>
<stop offset="0.75" stop-color="#484C89"/>
<stop offset="1" stop-color="#484C89"/>
</radialGradient>
</defs>
</svg>
