<svg width="101" height="100" viewBox="0 0 101 100" fill="none" xmlns="http://www.w3.org/2000/svg">
<path d="M50.33 0C26.72 0 26.4664 9.16455 26.4664 11.0509C26.4664 13.9127 26.4664 22.5 26.4664 22.5H50.7845V25.9373C50.7845 25.9373 25.4645 25.9373 16.8073 25.9373C9.58091 25.9373 0.5 30.3309 0.5 49.8009C0.5 67.6855 7.58364 74.6018 14.7327 74.6018C16.8555 74.6018 23.2273 74.6018 23.2273 74.6018C23.2273 74.6018 23.2273 65.7245 23.2273 62.67C23.2273 57.6782 25.7009 48.4373 37.2327 48.4373C51.6964 48.4373 55.3882 48.4373 61.3518 48.4373C64.8991 48.4373 74.9027 46.8955 74.9027 35.3409C74.9027 23.1118 74.9027 19.0773 74.9027 13.3236C74.9036 10.4573 74.4136 0 50.33 0ZM36.9209 7.69909C39.3409 7.69909 41.2964 9.65364 41.2964 12.0745C41.2964 14.4936 39.3409 16.45 36.9209 16.45C34.5009 16.45 32.5455 14.4945 32.5455 12.0745C32.5455 9.65364 34.5009 7.69909 36.9209 7.69909Z" fill="url(#paint0_linear_874_2571)"/>
<path d="M50.67 100C74.2691 100 74.5627 90.6627 74.5627 88.9491C74.5627 86.0873 74.5627 77.5 74.5627 77.5H50.2155V74.0627C50.2155 74.0627 75.6991 74.0627 84.1927 74.0627C91.4737 74.0627 100.5 69.5591 100.5 50.1991C100.5 28.9973 90.92 25.3982 86.2673 25.3982C84.1437 25.3982 77.7727 25.3982 77.7727 25.3982C77.7727 25.3982 77.7727 34.6855 77.7727 37.33C77.7727 42.3218 75.3809 51.5627 63.7673 51.5627C49.3037 51.5627 46.0618 51.5627 39.6473 51.5627C36.1091 51.5627 26.0964 53.2864 26.0964 64.6591C26.0964 77.8182 26.0964 81.2636 26.0964 86.6764C26.0964 91.4309 29.0018 100 50.67 100ZM64.08 92.3009C61.66 92.3009 59.7046 90.3455 59.7046 87.9255C59.7046 85.5055 61.6591 83.55 64.08 83.55C66.4991 83.55 68.4555 85.5055 68.4555 87.9255C68.4555 90.3455 66.4991 92.3009 64.08 92.3009Z" fill="url(#paint1_linear_874_2571)"/>
<defs>
<linearGradient id="paint0_linear_874_2571" x1="9.87136" y1="8.93291" x2="59.5782" y2="58.806" gradientUnits="userSpaceOnUse">
<stop stop-color="#387EB8"/>
<stop offset="1" stop-color="#366994"/>
</linearGradient>
<linearGradient id="paint1_linear_874_2571" x1="40.0791" y1="40.7973" x2="93.3719" y2="91.8545" gradientUnits="userSpaceOnUse">
<stop stop-color="#FFE052"/>
<stop offset="1" stop-color="#FFC331"/>
</linearGradient>
</defs>
</svg>
