<svg width="99" height="100" viewBox="0 0 99 100" fill="none" xmlns="http://www.w3.org/2000/svg">
<path d="M49.5 58.8163C54.3733 58.8163 58.3239 54.8691 58.3239 50.0001C58.3239 45.131 54.3733 41.1838 49.5 41.1838C44.6267 41.1838 40.6761 45.131 40.6761 50.0001C40.6761 54.8691 44.6267 58.8163 49.5 58.8163Z" fill="#61DAFB"/>
<path d="M49.5 68.0626C75.6495 68.0626 96.8478 59.9757 96.8478 50C96.8478 40.0244 75.6495 31.9375 49.5 31.9375C23.3505 31.9375 2.15216 40.0244 2.15216 50C2.15216 59.9757 23.3505 68.0626 49.5 68.0626Z" stroke="#61DAFB" stroke-width="4"/>
<path d="M33.8438 59.0313C46.9185 81.6577 64.5272 95.9566 73.1739 90.9687C81.8206 85.9809 78.231 63.5951 65.1562 40.9687C52.0815 18.3423 34.4728 4.04343 25.8261 9.03126C17.1794 14.0191 20.769 36.4049 33.8438 59.0313Z" stroke="#61DAFB" stroke-width="4"/>
<path d="M33.8437 40.9687C20.769 63.5951 17.1793 85.9809 25.826 90.9687C34.4727 95.9565 52.0814 81.6576 65.1562 59.0312C78.2309 36.4048 81.8205 14.0191 73.1738 9.03124C64.5271 4.04341 46.9184 18.3423 33.8437 40.9687Z" stroke="#61DAFB" stroke-width="4"/>
</svg>
