<svg width="210" height="100" viewBox="0 0 210 100" fill="none" xmlns="http://www.w3.org/2000/svg">
<path d="M81.1351 49.4004C78.483 49.4004 76.3265 50.1908 74.6732 51.7709C73.0199 53.3524 72.1812 55.4254 72.1812 57.9654C72.1812 59.2818 72.3895 60.482 72.7999 61.5818C73.2103 62.6838 73.849 63.7047 74.7076 64.6271C75.5662 65.5504 77.2848 66.8046 79.8462 68.3992C82.9892 70.331 85.046 71.8988 86.0331 73.1229C87.021 74.3461 87.5111 75.6279 87.5111 76.9642C87.5111 78.7535 86.9261 80.1818 85.7238 81.2554C84.5194 82.3295 82.9087 82.8646 80.9117 82.8646C78.8054 82.8646 76.9706 82.117 75.395 80.6325C73.8194 79.1458 73.024 77.1794 73.0062 74.7148H72.0266V83.6605H73.0062C73.3052 82.8134 73.719 82.3801 74.2607 82.3801C74.5213 82.3801 75.1317 82.561 76.0824 82.8992C78.3957 83.7279 80.2951 84.1277 81.7882 84.1277C84.3613 84.1277 86.5577 83.2204 88.3876 81.3765C90.2148 79.5335 91.1374 77.3103 91.1374 74.7148C91.1374 72.7023 90.5283 70.9117 89.3329 69.3509C88.1374 67.7882 85.8125 65.9705 82.3382 63.8831C79.3485 62.0746 77.4078 60.6017 76.5121 59.4535C75.615 58.3069 75.1544 57.0386 75.1544 55.6468C75.1544 54.1414 75.7037 52.9323 76.7871 52.0305C77.8705 51.1279 79.29 50.6808 81.0664 50.6808C83.0655 50.6808 84.7318 51.2781 86.0503 52.4803C87.3675 53.6846 88.1291 55.3535 88.3533 57.4982H89.3329V49.7465H88.422C88.3106 50.1417 88.2075 50.3943 88.1126 50.5078C88.0205 50.6206 87.8432 50.6808 87.5799 50.6808C87.263 50.6808 86.6979 50.5465 85.8957 50.2828C84.1771 49.7001 82.5925 49.4004 81.1351 49.4004ZM113.153 49.4004C109.921 49.4004 106.987 50.1673 104.336 51.7017C101.681 53.2334 99.5798 55.3603 98.029 58.0692C96.4788 60.778 95.7089 63.6549 95.7089 66.7208C95.7089 70.8398 97.048 74.5093 99.7476 77.7256C102.449 80.9399 105.685 82.9427 109.44 83.7124C110.299 84.1629 111.528 85.3256 113.135 87.2077C114.948 89.3316 116.481 90.8635 117.741 91.7757C119.001 92.6884 120.36 93.3573 121.797 93.8001C123.235 94.2411 124.79 94.4577 126.472 94.4577C128.508 94.4577 130.331 94.1013 131.937 93.3676L131.576 92.4678C130.644 92.8063 129.65 92.9696 128.603 92.9696C127.182 92.9696 125.746 92.4978 124.306 91.5507C122.869 90.6013 121.071 88.7898 118.927 86.1176C117.919 84.8371 117.224 84.0293 116.83 83.7124C120.939 82.9046 124.318 80.8996 126.953 77.691C129.587 74.4837 130.906 70.8232 130.906 66.7208C130.906 61.8497 129.184 57.7559 125.767 54.4183C122.347 51.0803 118.141 49.4004 113.153 49.4004ZM133.14 49.4004L133.192 50.4559C135.343 50.4559 136.548 51.094 136.818 52.3765C136.918 52.8354 136.964 53.6827 136.972 54.9028L136.955 78.2446C136.937 79.988 136.691 81.101 136.216 81.5841C135.741 82.0638 134.938 82.3642 133.776 82.4839L133.724 83.5394H155.172L155.722 78.2446H154.743C154.463 79.687 153.822 80.7203 152.801 81.3073C151.777 81.8986 149.967 82.1898 147.353 82.1898H145.325C142.972 82.1898 141.611 81.3335 141.252 79.6116C141.178 79.2709 141.152 78.9057 141.149 78.5042L141.235 54.9028C141.234 53.1622 141.453 51.9959 141.905 51.4249C142.362 50.8559 143.186 50.5376 144.38 50.4559L144.328 49.4004H133.14ZM113.496 50.6808C117.141 50.6808 120.117 52.1261 122.416 55.0412C124.714 57.9573 125.853 61.9541 125.853 67.0149C125.853 71.8106 124.698 75.6505 122.382 78.5388C120.066 81.4262 116.983 82.8646 113.153 82.8646C109.473 82.8646 106.489 81.3814 104.199 78.4004C101.911 75.4194 100.779 71.5492 100.779 66.79C100.779 61.8995 101.925 57.9846 104.233 55.0585C106.54 52.1355 109.63 50.6808 113.496 50.6808ZM162.82 55.6987C162.297 55.6987 161.898 55.8766 161.6 56.2351C161.295 56.5922 161.201 57.0248 161.308 57.5501C161.411 58.0598 161.696 58.5064 162.15 58.8825C162.601 59.2582 163.088 59.4535 163.611 59.4535C164.117 59.4535 164.502 59.2582 164.779 58.8825C165.056 58.5064 165.141 58.0598 165.037 57.5501C164.931 57.0248 164.655 56.5922 164.229 56.2351C163.799 55.8766 163.326 55.6987 162.82 55.6987ZM176.964 59.2805C176.075 62.7232 174.149 64.5863 171.19 64.8867L171.224 65.8729H174.679L174.61 77.5352C174.615 79.5291 174.676 80.8566 174.816 81.5322C175.156 83.1498 176.205 83.972 177.961 83.972C180.501 83.972 183.166 82.4141 185.953 79.3001L185.11 78.5734C183.098 80.6241 181.319 81.6534 179.766 81.6534C178.811 81.6534 178.219 81.1005 177.995 80.0096C177.934 79.7446 177.91 79.435 177.91 79.0752L177.944 65.8729H183.22L183.168 64.2984H177.961V59.2805H176.964ZM197.364 63.6754C194.413 63.6754 192.012 65.1178 190.146 67.9839C188.289 70.8548 187.714 74.0356 188.445 77.5352C188.874 79.5851 189.73 81.1738 191.04 82.2936C192.347 83.4129 194.006 83.972 195.989 83.972C197.836 83.972 200.407 83.5013 201.489 82.5531C202.573 81.6055 203.573 80.0704 204.496 77.9678L203.757 77.1892C202.285 79.9168 199.313 81.29 197.072 81.29C193.991 81.29 192.104 79.5881 191.401 76.2029C191.309 75.7708 191.241 75.3066 191.194 74.8186C194.86 74.2343 197.638 73.1997 199.512 71.7041C201.386 70.2076 203.266 68.6214 202.915 66.9457C202.706 65.95 202.193 65.167 201.403 64.5752C200.603 63.9837 198.525 63.6754 197.364 63.6754ZM165.106 63.7966L158.747 65.2673V66.4093L160.947 66.1325C162.012 66.1325 162.639 66.6183 162.837 67.5859C162.904 67.9098 162.946 68.3646 162.958 68.9356L162.889 79.404C162.871 80.8526 162.712 81.6947 162.391 81.9475C162.067 82.2008 161.213 82.3282 159.83 82.3282L159.795 83.3145H169.884L169.866 82.3282C168.465 82.3282 167.556 82.2168 167.151 81.9994C166.753 81.7834 166.479 81.3903 166.361 80.7882C166.269 80.3543 166.229 79.6067 166.223 78.5734L166.257 63.7966H165.106ZM195.749 65.7345C196.362 65.7345 196.956 65.9732 197.553 66.4439C198.142 66.913 198.501 67.4346 198.619 68.0012C199.194 70.7843 196.743 72.7084 191.229 73.7805C191.071 71.7511 191.42 69.9089 192.311 68.2435C193.195 66.5797 194.347 65.7345 195.749 65.7345Z" fill="#003B57"/>
<path d="M66.8915 9.43286H12.168C8.50032 9.43286 5.49951 12.4547 5.49951 16.1472V76.9082C5.49951 80.6004 8.50032 83.6218 12.168 83.6218H48.2103C47.8012 65.5661 53.9253 30.5256 66.8915 9.43286Z" fill="#0F80CC"/>
<path d="M64.9034 11.3916H12.168C9.56373 11.3916 7.44449 13.5247 7.44449 16.1472V72.4751C19.3879 67.86 37.3136 63.8778 49.7081 64.0587C52.1988 50.9466 59.5189 25.2497 64.9034 11.3916Z" fill="url(#paint0_linear_874_2518)"/>
<path d="M79.6559 7.44459C75.908 4.07948 71.3702 5.4312 66.8915 9.43306C66.2267 10.0276 65.5634 10.6872 64.9034 11.3918C57.2419 19.5748 50.1303 34.7323 47.9209 46.308C48.7816 48.0653 49.4539 50.3078 49.8966 52.0208C50.01 52.4603 50.1125 52.8728 50.1943 53.2237C50.3888 54.0542 50.4933 54.5928 50.4933 54.5928C50.4933 54.5928 50.4245 54.3311 50.1427 53.5082C50.0891 53.3504 50.0293 53.1781 49.9585 52.9753C49.9282 52.8915 49.8863 52.7898 49.8402 52.6811C49.3405 51.5114 47.958 49.0426 47.3496 47.9678C46.8292 49.5133 46.3693 50.9591 45.9844 52.2672C47.7408 55.5028 48.8111 61.0477 48.8111 61.0477C48.8111 61.0477 48.7183 60.6883 48.277 59.4341C47.8851 58.3248 45.9335 54.8821 45.4712 54.0772C44.6804 57.0165 44.3661 59.001 44.6495 59.4841C45.1997 60.4204 45.7236 62.0358 46.1837 63.8223C47.2231 67.8469 47.9456 72.7464 47.9456 72.7464C47.9456 72.7464 47.969 73.0711 48.0082 73.5707C47.8638 76.9505 47.9505 80.4547 48.2103 83.622C48.5547 87.8147 49.203 91.4165 50.0293 93.3441L50.5902 93.0362C49.3769 89.2384 48.884 84.2614 49.0999 78.5216C49.4264 69.7481 51.4316 59.1678 55.137 48.1401C61.3968 31.4931 70.0819 18.1365 78.0308 11.7579C70.7858 18.3455 60.9802 39.6692 58.0448 47.5656C54.7582 56.4082 52.4291 64.7062 51.0254 72.6564C53.4472 65.2031 61.2779 61.9993 61.2779 61.9993C61.2779 61.9993 65.1186 57.2304 69.6069 50.4172C66.9183 51.0346 62.5036 52.0914 61.0249 52.7171C58.8436 53.6383 58.2559 53.9525 58.2559 53.9525C58.2559 53.9525 65.3214 49.6205 71.3832 47.6591C79.7198 34.4395 88.8023 15.6594 79.6559 7.44459Z" fill="#003B57"/>
<defs>
<linearGradient id="paint0_linear_874_2518" x1="40.5762" y1="12.6416" x2="40.5762" y2="69.0781" gradientUnits="userSpaceOnUse">
<stop stop-color="#97D9F6"/>
<stop offset="0.920245" stop-color="#0F80CC"/>
<stop offset="1" stop-color="#0F80CC"/>
</linearGradient>
</defs>
</svg>
