<svg width="131" height="80" viewBox="0 0 131 80" fill="none" xmlns="http://www.w3.org/2000/svg">
<mask id="mask0_874_2543" style="mask-type:luminance" maskUnits="userSpaceOnUse" x="0" y="0" width="131" height="79">
<path d="M0.5 0H130.5V78.5454H0.5V0Z" fill="white"/>
</mask>
<g mask="url(#mask0_874_2543)">
<path fill-rule="evenodd" clip-rule="evenodd" d="M65.5 0C48.1667 0 37.3333 8.72727 33 26.1818C39.5 17.4545 47.0833 14.1818 55.75 16.3636C60.6948 17.6073 64.2289 21.2218 68.1409 25.2194C74.5133 31.7333 81.8896 39.2727 98 39.2727C115.333 39.2727 126.167 30.5454 130.5 13.0909C124 21.8182 116.417 25.0909 107.75 22.9091C102.805 21.6654 99.2711 18.0509 95.3591 14.0533C88.9867 7.53939 81.6104 0 65.5 0ZM33 39.2727C15.6667 39.2727 4.83333 48 0.5 65.4545C7 56.7273 14.5833 53.4545 23.25 55.6364C28.1948 56.8824 31.7289 60.4945 35.6409 64.4921C42.0133 71.006 49.3896 78.5454 65.5 78.5454C82.8333 78.5454 93.6667 69.8182 98 52.3636C91.5 61.0909 83.9167 64.3636 75.25 62.1818C70.3052 60.9382 66.7711 57.3236 62.8591 53.326C56.4867 46.8121 49.1104 39.2727 33 39.2727Z" fill="#00ACC1"/>
</g>
</svg>
